<svg width="30" height="30" viewBox="0 0 30 30" fill="none" xmlns="http://www.w3.org/2000/svg">
<path d="M30 15.0551C30 6.74042 23.2843 0 15 0C6.71574 0 0 6.74042 0 15.0551C0 22.1157 4.8429 28.04 11.3764 29.6669V19.6557H8.28324V15.0551H11.3764V13.0727C11.3764 7.94845 13.6868 5.57335 18.6992 5.57335C19.6495 5.57335 21.2893 5.76033 21.9601 5.94738V10.1179C21.606 10.0805 20.9911 10.0618 20.2271 10.0618C17.7676 10.0618 16.8172 10.9969 16.8172 13.4281V15.0551H21.7168L20.8751 19.6557H16.8172V30C24.2444 29.0996 30 22.7524 30 15.0551Z" fill="#1A2634"/>
</svg>
