<svg xmlns="http://www.w3.org/2000/svg" xmlns:xlink="http://www.w3.org/1999/xlink" width="500" zoomAndPan="magnify" viewBox="0 0 375 374.999991" height="500" preserveAspectRatio="xMidYMid meet" version="1.0"><defs><g/><clipPath id="92dbbe429d"><path d="M 187.5 0 C 83.945312 0 0 83.945312 0 187.5 C 0 291.054688 83.945312 375 187.5 375 C 291.054688 375 375 291.054688 375 187.5 C 375 83.945312 291.054688 0 187.5 0 Z M 187.5 0 " clip-rule="nonzero"/></clipPath><clipPath id="1a3cb2bf0a"><path d="M 0 0 L 375 0 L 375 375 L 0 375 Z M 0 0 " clip-rule="nonzero"/></clipPath><clipPath id="7dac114768"><path d="M 187.5 0 C 83.945312 0 0 83.945312 0 187.5 C 0 291.054688 83.945312 375 187.5 375 C 291.054688 375 375 291.054688 375 187.5 C 375 83.945312 291.054688 0 187.5 0 Z M 187.5 0 " clip-rule="nonzero"/></clipPath><clipPath id="3d68577653"><rect x="0" width="375" y="0" height="375"/></clipPath><clipPath id="e4d1056407"><rect x="0" width="334" y="0" height="124"/></clipPath><clipPath id="8417e82700"><rect x="0" width="339" y="0" height="31"/></clipPath></defs><g clip-path="url(#92dbbe429d)"><g transform="matrix(1, 0, 0, 1, 0, 0)"><g clip-path="url(#3d68577653)"><g clip-path="url(#1a3cb2bf0a)"><g clip-path="url(#7dac114768)"><rect x="-82.5" width="540" fill="#f9f7f2" height="539.999987" y="-82.499998" fill-opacity="1"/></g></g></g></g></g><g transform="matrix(1, 0, 0, 1, 24, 120)"><g clip-path="url(#e4d1056407)"><g fill="#000000" fill-opacity="1"><g transform="translate(0.507937, 92.470425)"><g><path d="M 20.078125 -83.390625 C 18.285156 -83.390625 16.328125 -83.222656 14.203125 -82.890625 C 12.078125 -82.566406 10.054688 -82.203125 8.140625 -81.796875 C 6.222656 -81.390625 4.648438 -81.019531 3.421875 -80.6875 C 2.203125 -80.363281 1.59375 -80.203125 1.59375 -80.203125 L 1.59375 -85.71875 L 79.84375 -85.71875 C 78.78125 -84.820312 77.472656 -83.410156 75.921875 -81.484375 C 74.367188 -79.566406 72.816406 -77.566406 71.265625 -75.484375 C 69.710938 -73.410156 68.445312 -71.675781 67.46875 -70.28125 L 18.375 -2.328125 L 59.75 -2.328125 C 61.632812 -2.328125 63.632812 -2.488281 65.75 -2.8125 C 67.875 -3.144531 69.894531 -3.515625 71.8125 -3.921875 C 73.738281 -4.328125 75.3125 -4.691406 76.53125 -5.015625 C 77.757812 -5.347656 78.375 -5.515625 78.375 -5.515625 L 78.375 0 L 0 0 C 0.25 -0.25 0.878906 -0.960938 1.890625 -2.140625 C 2.910156 -3.328125 4.132812 -4.796875 5.5625 -6.546875 C 7 -8.304688 8.453125 -10.164062 9.921875 -12.125 L 61.46875 -83.390625 Z M 20.078125 -83.390625 "/></g></g></g><g fill="#000000" fill-opacity="1"><g transform="translate(81.807125, 92.470425)"><g><path d="M 50.9375 -85.71875 L 81.671875 -12 C 82.898438 -9.144531 84.164062 -6.53125 85.46875 -4.15625 C 86.78125 -1.789062 87.554688 -0.40625 87.796875 0 L 72.984375 0 L 43.71875 -70.171875 C 42.976562 -71.960938 42.015625 -74.222656 40.828125 -76.953125 C 39.648438 -79.691406 38.488281 -81.960938 37.34375 -83.765625 C 36.53125 -79.679688 35 -75.351562 32.75 -70.78125 C 30.507812 -66.207031 27.957031 -61.570312 25.09375 -56.875 C 22.238281 -52.1875 19.484375 -47.597656 16.828125 -43.109375 C 14.179688 -38.617188 12 -34.375 10.28125 -30.375 C 8.082031 -25.144531 7.0625 -20.9375 7.21875 -17.75 C 7.382812 -14.570312 8.382812 -12.492188 10.21875 -11.515625 C 12.0625 -10.535156 14.453125 -10.738281 17.390625 -12.125 C 19.179688 -13.019531 21.097656 -14.34375 23.140625 -16.09375 C 25.179688 -17.851562 27.265625 -19.8125 29.390625 -21.96875 C 31.515625 -24.132812 33.515625 -26.28125 35.390625 -28.40625 C 37.265625 -30.53125 38.9375 -32.367188 40.40625 -33.921875 C 41.957031 -35.554688 43.710938 -36.800781 45.671875 -37.65625 C 47.628906 -38.507812 49.585938 -38.488281 51.546875 -37.59375 C 52.367188 -37.269531 53.289062 -36.632812 54.3125 -35.6875 C 55.332031 -34.75 56.332031 -33.769531 57.3125 -32.75 C 58.289062 -31.726562 59.101562 -30.894531 59.75 -30.25 C 57.957031 -30.65625 55.957031 -30.304688 53.75 -29.203125 C 51.550781 -28.097656 49.429688 -26.648438 47.390625 -24.859375 C 45.097656 -22.898438 42.726562 -20.53125 40.28125 -17.75 C 37.832031 -14.976562 35.300781 -12.222656 32.6875 -9.484375 C 30.082031 -6.753906 27.347656 -4.488281 24.484375 -2.6875 C 21.628906 -0.894531 18.691406 0 15.671875 0 C 9.222656 0 4.894531 -2.613281 2.6875 -7.84375 C 1.550781 -10.695312 1.1875 -13.753906 1.59375 -17.015625 C 2 -20.285156 2.914062 -23.613281 4.34375 -27 C 5.769531 -30.382812 7.460938 -33.707031 9.421875 -36.96875 C 11.390625 -40.238281 13.390625 -43.320312 15.421875 -46.21875 C 17.460938 -49.125 19.21875 -51.71875 20.6875 -54 C 21.832031 -55.71875 23.238281 -57.960938 24.90625 -60.734375 C 26.582031 -63.515625 28.28125 -66.472656 30 -69.609375 C 31.71875 -72.753906 33.164062 -75.753906 34.34375 -78.609375 C 35.53125 -81.472656 36.164062 -83.84375 36.25 -85.71875 Z M 50.9375 -85.71875 "/></g></g></g><g fill="#000000" fill-opacity="1"><g transform="translate(171.064917, 92.470425)"><g><path d="M 13.71875 -13.46875 C 13.71875 -9.875 13.921875 -6.726562 14.328125 -4.03125 C 14.734375 -1.34375 14.9375 0 14.9375 0 L 0 0 C 0 0 0.203125 -1.34375 0.609375 -4.03125 C 1.015625 -6.726562 1.21875 -9.875 1.21875 -13.46875 L 1.21875 -72.25 C 1.21875 -75.84375 1.015625 -78.984375 0.609375 -81.671875 C 0.203125 -84.367188 0 -85.71875 0 -85.71875 L 43.46875 -85.71875 C 48.039062 -85.71875 52.265625 -84.921875 56.140625 -83.328125 C 60.023438 -81.734375 63.171875 -79.34375 65.578125 -76.15625 C 67.984375 -72.976562 69.1875 -68.941406 69.1875 -64.046875 C 69.1875 -59.472656 68.242188 -55.796875 66.359375 -53.015625 C 64.484375 -50.242188 61.992188 -48.0625 58.890625 -46.46875 C 55.796875 -44.875 52.410156 -43.585938 48.734375 -42.609375 C 46.691406 -42.035156 44.546875 -41.484375 42.296875 -40.953125 C 40.054688 -40.429688 37.875 -39.84375 35.75 -39.1875 L 42.484375 -39.1875 C 44.367188 -39.1875 45.71875 -38.976562 46.53125 -38.5625 C 47.34375 -38.15625 48.203125 -37.140625 49.109375 -35.515625 L 60.859375 -14.8125 C 61.671875 -13.425781 62.671875 -11.734375 63.859375 -9.734375 C 65.046875 -7.734375 66.25 -5.832031 67.46875 -4.03125 C 68.695312 -2.238281 69.675781 -0.894531 70.40625 0 L 59.140625 0 C 57.265625 0 55.859375 -0.382812 54.921875 -1.15625 C 53.984375 -1.9375 53.066406 -3.101562 52.171875 -4.65625 L 36 -33.1875 C 34.695312 -35.550781 33.003906 -36.671875 30.921875 -36.546875 C 28.835938 -36.429688 26.9375 -35.515625 25.21875 -33.796875 C 24.570312 -33.054688 23.960938 -32.238281 23.390625 -31.34375 C 22.816406 -30.445312 22.367188 -29.550781 22.046875 -28.65625 C 22.203125 -31.269531 23.300781 -33.515625 25.34375 -35.390625 C 27.382812 -37.265625 29.753906 -38.894531 32.453125 -40.28125 C 35.390625 -41.832031 38.242188 -43.179688 41.015625 -44.328125 C 43.796875 -45.472656 46.304688 -46.800781 48.546875 -48.3125 C 50.796875 -49.820312 52.570312 -51.800781 53.875 -54.25 C 55.1875 -56.695312 55.84375 -59.960938 55.84375 -64.046875 C 55.84375 -69.429688 54.78125 -73.550781 52.65625 -76.40625 C 50.53125 -79.269531 47.648438 -81.25 44.015625 -82.34375 C 40.390625 -83.445312 36.25 -84 31.59375 -84 L 13.84375 -84 C 13.84375 -72.25 13.820312 -60.492188 13.78125 -48.734375 C 13.738281 -36.984375 13.71875 -25.226562 13.71875 -13.46875 Z M 13.71875 -13.46875 "/></g></g></g><g fill="#000000" fill-opacity="1"><g transform="translate(242.813791, 92.470425)"><g><path d="M 50.9375 -85.71875 L 81.671875 -12 C 82.898438 -9.144531 84.164062 -6.53125 85.46875 -4.15625 C 86.78125 -1.789062 87.554688 -0.40625 87.796875 0 L 72.984375 0 L 43.71875 -70.171875 C 42.976562 -71.960938 42.015625 -74.222656 40.828125 -76.953125 C 39.648438 -79.691406 38.488281 -81.960938 37.34375 -83.765625 C 36.53125 -79.679688 35 -75.351562 32.75 -70.78125 C 30.507812 -66.207031 27.957031 -61.570312 25.09375 -56.875 C 22.238281 -52.1875 19.484375 -47.597656 16.828125 -43.109375 C 14.179688 -38.617188 12 -34.375 10.28125 -30.375 C 8.082031 -25.144531 7.0625 -20.9375 7.21875 -17.75 C 7.382812 -14.570312 8.382812 -12.492188 10.21875 -11.515625 C 12.0625 -10.535156 14.453125 -10.738281 17.390625 -12.125 C 19.179688 -13.019531 21.097656 -14.34375 23.140625 -16.09375 C 25.179688 -17.851562 27.265625 -19.8125 29.390625 -21.96875 C 31.515625 -24.132812 33.515625 -26.28125 35.390625 -28.40625 C 37.265625 -30.53125 38.9375 -32.367188 40.40625 -33.921875 C 41.957031 -35.554688 43.710938 -36.800781 45.671875 -37.65625 C 47.628906 -38.507812 49.585938 -38.488281 51.546875 -37.59375 C 52.367188 -37.269531 53.289062 -36.632812 54.3125 -35.6875 C 55.332031 -34.75 56.332031 -33.769531 57.3125 -32.75 C 58.289062 -31.726562 59.101562 -30.894531 59.75 -30.25 C 57.957031 -30.65625 55.957031 -30.304688 53.75 -29.203125 C 51.550781 -28.097656 49.429688 -26.648438 47.390625 -24.859375 C 45.097656 -22.898438 42.726562 -20.53125 40.28125 -17.75 C 37.832031 -14.976562 35.300781 -12.222656 32.6875 -9.484375 C 30.082031 -6.753906 27.347656 -4.488281 24.484375 -2.6875 C 21.628906 -0.894531 18.691406 0 15.671875 0 C 9.222656 0 4.894531 -2.613281 2.6875 -7.84375 C 1.550781 -10.695312 1.1875 -13.753906 1.59375 -17.015625 C 2 -20.285156 2.914062 -23.613281 4.34375 -27 C 5.769531 -30.382812 7.460938 -33.707031 9.421875 -36.96875 C 11.390625 -40.238281 13.390625 -43.320312 15.421875 -46.21875 C 17.460938 -49.125 19.21875 -51.71875 20.6875 -54 C 21.832031 -55.71875 23.238281 -57.960938 24.90625 -60.734375 C 26.582031 -63.515625 28.28125 -66.472656 30 -69.609375 C 31.71875 -72.753906 33.164062 -75.753906 34.34375 -78.609375 C 35.53125 -81.472656 36.164062 -83.84375 36.25 -85.71875 Z M 50.9375 -85.71875 "/></g></g></g></g></g><g transform="matrix(1, 0, 0, 1, 17, 226)"><g clip-path="url(#8417e82700)"><g fill="#000000" fill-opacity="1"><g transform="translate(1.41903, 24.264951)"><g><path d="M 8.328125 0 L 5.859375 0 L 0.46875 -18.171875 L 2.765625 -18.171875 L 7.265625 -3.140625 L 11.734375 -18.171875 L 13.828125 -18.171875 L 18.328125 -3.125 L 22.8125 -18.171875 L 25.09375 -18.171875 L 19.71875 0 L 17.234375 0 L 12.78125 -14.59375 Z M 8.328125 0 "/></g></g></g><g fill="#000000" fill-opacity="1"><g transform="translate(25.828974, 24.264951)"><g><path d="M 13.625 0 L 1.875 0 L 1.875 -18.171875 L 13.625 -18.171875 L 13.625 -16.1875 L 4.078125 -16.1875 L 4.078125 -10.09375 L 12.5 -10.09375 L 12.5 -8.140625 L 4.078125 -8.140625 L 4.078125 -1.96875 L 13.625 -1.96875 Z M 13.625 0 "/></g></g></g><g fill="#000000" fill-opacity="1"><g transform="translate(39.331554, 24.264951)"><g><path d="M 6.859375 0 L 1.875 0 L 1.875 -18.171875 L 6.875 -18.171875 C 9.914062 -18.171875 12.234375 -17.375 13.828125 -15.78125 C 15.421875 -14.195312 16.21875 -11.945312 16.21875 -9.03125 C 16.21875 -6.15625 15.414062 -3.929688 13.8125 -2.359375 C 12.207031 -0.785156 9.890625 0 6.859375 0 Z M 4.078125 -16.1875 L 4.078125 -1.96875 L 6.828125 -1.96875 C 7.785156 -1.96875 8.695312 -2.066406 9.5625 -2.265625 C 10.425781 -2.472656 11.191406 -2.832031 11.859375 -3.34375 C 12.523438 -3.863281 13.050781 -4.582031 13.4375 -5.5 C 13.832031 -6.414062 14.03125 -7.59375 14.03125 -9.03125 C 14.03125 -10.800781 13.722656 -12.207031 13.109375 -13.25 C 12.492188 -14.289062 11.648438 -15.039062 10.578125 -15.5 C 9.515625 -15.957031 8.273438 -16.1875 6.859375 -16.1875 Z M 4.078125 -16.1875 "/></g></g></g><g fill="#000000" fill-opacity="1"><g transform="translate(55.596709, 24.264951)"><g><path d="M 6.859375 0 L 1.875 0 L 1.875 -18.171875 L 6.875 -18.171875 C 9.914062 -18.171875 12.234375 -17.375 13.828125 -15.78125 C 15.421875 -14.195312 16.21875 -11.945312 16.21875 -9.03125 C 16.21875 -6.15625 15.414062 -3.929688 13.8125 -2.359375 C 12.207031 -0.785156 9.890625 0 6.859375 0 Z M 4.078125 -16.1875 L 4.078125 -1.96875 L 6.828125 -1.96875 C 7.785156 -1.96875 8.695312 -2.066406 9.5625 -2.265625 C 10.425781 -2.472656 11.191406 -2.832031 11.859375 -3.34375 C 12.523438 -3.863281 13.050781 -4.582031 13.4375 -5.5 C 13.832031 -6.414062 14.03125 -7.59375 14.03125 -9.03125 C 14.03125 -10.800781 13.722656 -12.207031 13.109375 -13.25 C 12.492188 -14.289062 11.648438 -15.039062 10.578125 -15.5 C 9.515625 -15.957031 8.273438 -16.1875 6.859375 -16.1875 Z M 4.078125 -16.1875 "/></g></g></g><g fill="#000000" fill-opacity="1"><g transform="translate(71.861863, 24.264951)"><g><path d="M 4.078125 0 L 1.875 0 L 1.875 -18.171875 L 4.078125 -18.171875 Z M 4.078125 0 "/></g></g></g><g fill="#000000" fill-opacity="1"><g transform="translate(76.671899, 24.264951)"><g><path d="M 4.078125 0 L 1.875 0 L 1.875 -18.171875 L 5.078125 -18.171875 L 13.234375 -2.1875 L 13.234375 -18.171875 L 15.40625 -18.171875 L 15.40625 0 L 12.21875 0 L 4.078125 -15.9375 Z M 4.078125 0 "/></g></g></g><g fill="#000000" fill-opacity="1"><g transform="translate(92.817976, 24.264951)"><g><path d="M 9.765625 0.234375 C 8.273438 0.234375 6.988281 -0.0195312 5.90625 -0.53125 C 4.820312 -1.050781 3.929688 -1.75 3.234375 -2.625 C 2.535156 -3.507812 2.019531 -4.503906 1.6875 -5.609375 C 1.351562 -6.722656 1.1875 -7.878906 1.1875 -9.078125 C 1.1875 -10.265625 1.359375 -11.414062 1.703125 -12.53125 C 2.046875 -13.65625 2.5625 -14.65625 3.25 -15.53125 C 3.9375 -16.414062 4.820312 -17.113281 5.90625 -17.625 C 6.988281 -18.144531 8.265625 -18.40625 9.734375 -18.40625 C 11.765625 -18.40625 13.425781 -17.921875 14.71875 -16.953125 C 16.019531 -15.984375 16.914062 -14.722656 17.40625 -13.171875 L 14.953125 -13.171875 C 14.554688 -14.148438 13.910156 -14.941406 13.015625 -15.546875 C 12.117188 -16.148438 11.007812 -16.453125 9.6875 -16.453125 C 8.582031 -16.453125 7.628906 -16.25 6.828125 -15.84375 C 6.035156 -15.4375 5.382812 -14.890625 4.875 -14.203125 C 4.375 -13.515625 4 -12.734375 3.75 -11.859375 C 3.5 -10.984375 3.375 -10.078125 3.375 -9.140625 C 3.375 -7.828125 3.609375 -6.601562 4.078125 -5.46875 C 4.546875 -4.332031 5.253906 -3.421875 6.203125 -2.734375 C 7.148438 -2.054688 8.328125 -1.71875 9.734375 -1.71875 C 10.929688 -1.71875 11.960938 -1.953125 12.828125 -2.421875 C 13.703125 -2.890625 14.378906 -3.554688 14.859375 -4.421875 C 15.335938 -5.296875 15.578125 -6.335938 15.578125 -7.546875 L 11.21875 -7.546875 L 11.21875 -9.5 L 17.71875 -9.5 L 17.71875 0 L 15.71875 0 L 15.71875 -2.59375 C 15.082031 -1.625 14.21875 -0.910156 13.125 -0.453125 C 12.03125 0.00390625 10.910156 0.234375 9.765625 0.234375 Z M 9.765625 0.234375 "/></g></g></g><g fill="#000000" fill-opacity="1"><g transform="translate(110.86926, 24.264951)"><g/></g></g><g fill="#000000" fill-opacity="1"><g transform="translate(116.369943, 24.264951)"><g><path d="M 9.578125 0.234375 C 8.140625 0.234375 6.894531 -0.015625 5.84375 -0.515625 C 4.789062 -1.015625 3.914062 -1.695312 3.21875 -2.5625 C 2.53125 -3.4375 2.019531 -4.429688 1.6875 -5.546875 C 1.351562 -6.671875 1.1875 -7.851562 1.1875 -9.09375 C 1.1875 -10.332031 1.351562 -11.503906 1.6875 -12.609375 C 2.019531 -13.722656 2.53125 -14.71875 3.21875 -15.59375 C 3.914062 -16.46875 4.789062 -17.15625 5.84375 -17.65625 C 6.894531 -18.15625 8.140625 -18.40625 9.578125 -18.40625 C 10.921875 -18.40625 12.101562 -18.179688 13.125 -17.734375 C 14.15625 -17.296875 14.988281 -16.675781 15.625 -15.875 C 16.257812 -15.082031 16.660156 -14.171875 16.828125 -13.140625 L 14.453125 -13.140625 C 14.234375 -14.160156 13.6875 -14.96875 12.8125 -15.5625 C 11.9375 -16.15625 10.84375 -16.453125 9.53125 -16.453125 C 8.175781 -16.453125 7.039062 -16.132812 6.125 -15.5 C 5.21875 -14.863281 4.53125 -13.988281 4.0625 -12.875 C 3.601562 -11.769531 3.375 -10.507812 3.375 -9.09375 C 3.375 -7.6875 3.601562 -6.421875 4.0625 -5.296875 C 4.53125 -4.179688 5.21875 -3.304688 6.125 -2.671875 C 7.039062 -2.035156 8.175781 -1.71875 9.53125 -1.71875 C 10.84375 -1.71875 11.9375 -2.035156 12.8125 -2.671875 C 13.6875 -3.304688 14.234375 -4.25 14.453125 -5.5 L 16.828125 -5.5 C 16.546875 -3.738281 15.773438 -2.34375 14.515625 -1.3125 C 13.253906 -0.28125 11.609375 0.234375 9.578125 0.234375 Z M 9.578125 0.234375 "/></g></g></g><g fill="#000000" fill-opacity="1"><g transform="translate(133.01613, 24.264951)"><g><path d="M 9.625 0.234375 C 8.195312 0.234375 6.953125 -0.015625 5.890625 -0.515625 C 4.835938 -1.015625 3.960938 -1.695312 3.265625 -2.5625 C 2.566406 -3.4375 2.046875 -4.429688 1.703125 -5.546875 C 1.359375 -6.671875 1.1875 -7.851562 1.1875 -9.09375 C 1.1875 -10.332031 1.359375 -11.507812 1.703125 -12.625 C 2.046875 -13.75 2.566406 -14.742188 3.265625 -15.609375 C 3.960938 -16.472656 4.835938 -17.15625 5.890625 -17.65625 C 6.953125 -18.15625 8.195312 -18.40625 9.625 -18.40625 C 11.0625 -18.40625 12.3125 -18.15625 13.375 -17.65625 C 14.445312 -17.15625 15.332031 -16.472656 16.03125 -15.609375 C 16.726562 -14.742188 17.242188 -13.75 17.578125 -12.625 C 17.921875 -11.507812 18.09375 -10.332031 18.09375 -9.09375 C 18.09375 -7.851562 17.921875 -6.671875 17.578125 -5.546875 C 17.242188 -4.429688 16.726562 -3.4375 16.03125 -2.5625 C 15.332031 -1.695312 14.445312 -1.015625 13.375 -0.515625 C 12.3125 -0.015625 11.0625 0.234375 9.625 0.234375 Z M 9.625 -1.734375 C 10.988281 -1.734375 12.140625 -2.050781 13.078125 -2.6875 C 14.015625 -3.320312 14.71875 -4.195312 15.1875 -5.3125 C 15.664062 -6.425781 15.90625 -7.6875 15.90625 -9.09375 C 15.90625 -10.507812 15.664062 -11.769531 15.1875 -12.875 C 14.71875 -13.976562 14.015625 -14.847656 13.078125 -15.484375 C 12.140625 -16.117188 10.988281 -16.4375 9.625 -16.4375 C 8.289062 -16.4375 7.15625 -16.117188 6.21875 -15.484375 C 5.289062 -14.847656 4.582031 -13.976562 4.09375 -12.875 C 3.613281 -11.769531 3.375 -10.507812 3.375 -9.09375 C 3.375 -7.6875 3.613281 -6.425781 4.09375 -5.3125 C 4.582031 -4.195312 5.289062 -3.320312 6.21875 -2.6875 C 7.15625 -2.050781 8.289062 -1.734375 9.625 -1.734375 Z M 9.625 -1.734375 "/></g></g></g><g fill="#000000" fill-opacity="1"><g transform="translate(151.162675, 24.264951)"><g><path d="M 4.078125 0 L 1.875 0 L 1.875 -18.171875 L 5.078125 -18.171875 L 13.234375 -2.1875 L 13.234375 -18.171875 L 15.40625 -18.171875 L 15.40625 0 L 12.21875 0 L 4.078125 -15.9375 Z M 4.078125 0 "/></g></g></g><g fill="#000000" fill-opacity="1"><g transform="translate(167.308752, 24.264951)"><g><path d="M 8.671875 0 L 6.484375 0 L 6.484375 -16.1875 L 0.328125 -16.1875 L 0.328125 -18.171875 L 14.828125 -18.171875 L 14.828125 -16.1875 L 8.671875 -16.1875 Z M 8.671875 0 "/></g></g></g><g fill="#000000" fill-opacity="1"><g transform="translate(181.311456, 24.264951)"><g><path d="M 13.625 0 L 1.875 0 L 1.875 -18.171875 L 13.625 -18.171875 L 13.625 -16.1875 L 4.078125 -16.1875 L 4.078125 -10.09375 L 12.5 -10.09375 L 12.5 -8.140625 L 4.078125 -8.140625 L 4.078125 -1.96875 L 13.625 -1.96875 Z M 13.625 0 "/></g></g></g><g fill="#000000" fill-opacity="1"><g transform="translate(194.814036, 24.264951)"><g><path d="M 4.078125 0 L 1.875 0 L 1.875 -18.171875 L 5.078125 -18.171875 L 13.234375 -2.1875 L 13.234375 -18.171875 L 15.40625 -18.171875 L 15.40625 0 L 12.21875 0 L 4.078125 -15.9375 Z M 4.078125 0 "/></g></g></g><g fill="#000000" fill-opacity="1"><g transform="translate(210.960113, 24.264951)"><g><path d="M 8.671875 0 L 6.484375 0 L 6.484375 -16.1875 L 0.328125 -16.1875 L 0.328125 -18.171875 L 14.828125 -18.171875 L 14.828125 -16.1875 L 8.671875 -16.1875 Z M 8.671875 0 "/></g></g></g><g fill="#000000" fill-opacity="1"><g transform="translate(224.962817, 24.264951)"><g/></g></g><g fill="#000000" fill-opacity="1"><g transform="translate(230.4635, 24.264951)"><g><path d="M 9.578125 0.234375 C 8.140625 0.234375 6.894531 -0.015625 5.84375 -0.515625 C 4.789062 -1.015625 3.914062 -1.695312 3.21875 -2.5625 C 2.53125 -3.4375 2.019531 -4.429688 1.6875 -5.546875 C 1.351562 -6.671875 1.1875 -7.851562 1.1875 -9.09375 C 1.1875 -10.332031 1.351562 -11.503906 1.6875 -12.609375 C 2.019531 -13.722656 2.53125 -14.71875 3.21875 -15.59375 C 3.914062 -16.46875 4.789062 -17.15625 5.84375 -17.65625 C 6.894531 -18.15625 8.140625 -18.40625 9.578125 -18.40625 C 10.921875 -18.40625 12.101562 -18.179688 13.125 -17.734375 C 14.15625 -17.296875 14.988281 -16.675781 15.625 -15.875 C 16.257812 -15.082031 16.660156 -14.171875 16.828125 -13.140625 L 14.453125 -13.140625 C 14.234375 -14.160156 13.6875 -14.96875 12.8125 -15.5625 C 11.9375 -16.15625 10.84375 -16.453125 9.53125 -16.453125 C 8.175781 -16.453125 7.039062 -16.132812 6.125 -15.5 C 5.21875 -14.863281 4.53125 -13.988281 4.0625 -12.875 C 3.601562 -11.769531 3.375 -10.507812 3.375 -9.09375 C 3.375 -7.6875 3.601562 -6.421875 4.0625 -5.296875 C 4.53125 -4.179688 5.21875 -3.304688 6.125 -2.671875 C 7.039062 -2.035156 8.175781 -1.71875 9.53125 -1.71875 C 10.84375 -1.71875 11.9375 -2.035156 12.8125 -2.671875 C 13.6875 -3.304688 14.234375 -4.25 14.453125 -5.5 L 16.828125 -5.5 C 16.546875 -3.738281 15.773438 -2.34375 14.515625 -1.3125 C 13.253906 -0.28125 11.609375 0.234375 9.578125 0.234375 Z M 9.578125 0.234375 "/></g></g></g><g fill="#000000" fill-opacity="1"><g transform="translate(247.109687, 24.264951)"><g><path d="M 11.140625 -8.078125 L 14.640625 0 L 12.234375 0 L 9.03125 -7.671875 L 4.078125 -7.671875 L 4.078125 0 L 1.875 0 L 1.875 -18.171875 L 8.640625 -18.171875 C 10.390625 -18.171875 11.785156 -17.738281 12.828125 -16.875 C 13.878906 -16.019531 14.40625 -14.722656 14.40625 -12.984375 C 14.40625 -11.753906 14.117188 -10.71875 13.546875 -9.875 C 12.972656 -9.039062 12.171875 -8.441406 11.140625 -8.078125 Z M 4.078125 -9.625 L 8.359375 -9.625 C 9.609375 -9.625 10.566406 -9.90625 11.234375 -10.46875 C 11.898438 -11.03125 12.234375 -11.84375 12.234375 -12.90625 C 12.234375 -13.957031 11.890625 -14.765625 11.203125 -15.328125 C 10.523438 -15.898438 9.578125 -16.1875 8.359375 -16.1875 L 4.078125 -16.1875 Z M 4.078125 -9.625 "/></g></g></g><g fill="#000000" fill-opacity="1"><g transform="translate(261.660144, 24.264951)"><g><path d="M 13.625 0 L 1.875 0 L 1.875 -18.171875 L 13.625 -18.171875 L 13.625 -16.1875 L 4.078125 -16.1875 L 4.078125 -10.09375 L 12.5 -10.09375 L 12.5 -8.140625 L 4.078125 -8.140625 L 4.078125 -1.96875 L 13.625 -1.96875 Z M 13.625 0 "/></g></g></g><g fill="#000000" fill-opacity="1"><g transform="translate(275.162725, 24.264951)"><g><path d="M 2.546875 0 L 0.328125 0 L 7.03125 -18.171875 L 9.5 -18.171875 L 16.1875 0 L 13.984375 0 L 12.375 -4.453125 L 4.140625 -4.453125 Z M 8.265625 -15.9375 L 4.875 -6.40625 L 11.640625 -6.40625 Z M 8.265625 -15.9375 "/></g></g></g><g fill="#000000" fill-opacity="1"><g transform="translate(290.522906, 24.264951)"><g><path d="M 8.671875 0 L 6.484375 0 L 6.484375 -16.1875 L 0.328125 -16.1875 L 0.328125 -18.171875 L 14.828125 -18.171875 L 14.828125 -16.1875 L 8.671875 -16.1875 Z M 8.671875 0 "/></g></g></g><g fill="#000000" fill-opacity="1"><g transform="translate(304.525584, 24.264951)"><g><path d="M 9.625 0.234375 C 8.195312 0.234375 6.953125 -0.015625 5.890625 -0.515625 C 4.835938 -1.015625 3.960938 -1.695312 3.265625 -2.5625 C 2.566406 -3.4375 2.046875 -4.429688 1.703125 -5.546875 C 1.359375 -6.671875 1.1875 -7.851562 1.1875 -9.09375 C 1.1875 -10.332031 1.359375 -11.507812 1.703125 -12.625 C 2.046875 -13.75 2.566406 -14.742188 3.265625 -15.609375 C 3.960938 -16.472656 4.835938 -17.15625 5.890625 -17.65625 C 6.953125 -18.15625 8.195312 -18.40625 9.625 -18.40625 C 11.0625 -18.40625 12.3125 -18.15625 13.375 -17.65625 C 14.445312 -17.15625 15.332031 -16.472656 16.03125 -15.609375 C 16.726562 -14.742188 17.242188 -13.75 17.578125 -12.625 C 17.921875 -11.507812 18.09375 -10.332031 18.09375 -9.09375 C 18.09375 -7.851562 17.921875 -6.671875 17.578125 -5.546875 C 17.242188 -4.429688 16.726562 -3.4375 16.03125 -2.5625 C 15.332031 -1.695312 14.445312 -1.015625 13.375 -0.515625 C 12.3125 -0.015625 11.0625 0.234375 9.625 0.234375 Z M 9.625 -1.734375 C 10.988281 -1.734375 12.140625 -2.050781 13.078125 -2.6875 C 14.015625 -3.320312 14.71875 -4.195312 15.1875 -5.3125 C 15.664062 -6.425781 15.90625 -7.6875 15.90625 -9.09375 C 15.90625 -10.507812 15.664062 -11.769531 15.1875 -12.875 C 14.71875 -13.976562 14.015625 -14.847656 13.078125 -15.484375 C 12.140625 -16.117188 10.988281 -16.4375 9.625 -16.4375 C 8.289062 -16.4375 7.15625 -16.117188 6.21875 -15.484375 C 5.289062 -14.847656 4.582031 -13.976562 4.09375 -12.875 C 3.613281 -11.769531 3.375 -10.507812 3.375 -9.09375 C 3.375 -7.6875 3.613281 -6.425781 4.09375 -5.3125 C 4.582031 -4.195312 5.289062 -3.320312 6.21875 -2.6875 C 7.15625 -2.050781 8.289062 -1.734375 9.625 -1.734375 Z M 9.625 -1.734375 "/></g></g></g><g fill="#000000" fill-opacity="1"><g transform="translate(322.672141, 24.264951)"><g><path d="M 11.140625 -8.078125 L 14.640625 0 L 12.234375 0 L 9.03125 -7.671875 L 4.078125 -7.671875 L 4.078125 0 L 1.875 0 L 1.875 -18.171875 L 8.640625 -18.171875 C 10.390625 -18.171875 11.785156 -17.738281 12.828125 -16.875 C 13.878906 -16.019531 14.40625 -14.722656 14.40625 -12.984375 C 14.40625 -11.753906 14.117188 -10.71875 13.546875 -9.875 C 12.972656 -9.039062 12.171875 -8.441406 11.140625 -8.078125 Z M 4.078125 -9.625 L 8.359375 -9.625 C 9.609375 -9.625 10.566406 -9.90625 11.234375 -10.46875 C 11.898438 -11.03125 12.234375 -11.84375 12.234375 -12.90625 C 12.234375 -13.957031 11.890625 -14.765625 11.203125 -15.328125 C 10.523438 -15.898438 9.578125 -16.1875 8.359375 -16.1875 L 4.078125 -16.1875 Z M 4.078125 -9.625 "/></g></g></g></g></g></svg>