<svg width="40" height="40" viewBox="0 0 40 40" fill="none" xmlns="http://www.w3.org/2000/svg">
<path d="M40 20.0735C40 8.98723 31.0457 1.81534e-07 20 1.81534e-07C8.95432 1.81534e-07 0 8.98723 0 20.0735C0 29.4876 6.4572 37.3867 15.1685 39.5559V26.2077H11.0443V20.0735H15.1685V17.4303C15.1685 10.5979 18.2491 7.43113 24.9323 7.43113C26.1994 7.43113 28.3857 7.68045 29.2801 7.92984V13.4905C28.808 13.4407 27.9882 13.4157 26.9695 13.4157C23.6901 13.4157 22.423 14.6625 22.423 17.9041V20.0735H28.9557L27.8334 26.2077H22.423V40C32.3258 38.7995 40 30.3365 40 20.0735Z" fill="#F9F7F2"/>
</svg>
