<svg width="40" height="40" viewBox="0 0 40 40" fill="none" xmlns="http://www.w3.org/2000/svg">
<g clip-path="url(#clip0_16_159)">
<path d="M11.7167 0.140364C9.58871 0.240764 8.13551 0.580364 6.86511 1.07956C5.55031 1.59196 4.43591 2.27956 3.32711 3.39236C2.21831 4.50516 1.53551 5.62036 1.02671 6.93716C0.53431 8.21036 0.20071 9.66476 0.10671 11.794C0.0127104 13.9232 -0.00808964 14.6076 0.00231036 20.0388C0.0127104 25.47 0.0367104 26.1508 0.13991 28.2844C0.24151 30.412 0.57991 31.8648 1.07911 33.1356C1.59231 34.4504 2.27911 35.5644 3.39231 36.6736C4.50551 37.7828 5.61991 38.464 6.93991 38.9736C8.21191 39.4652 9.66671 39.8004 11.7955 39.8936C13.9243 39.9868 14.6095 40.0084 20.0391 39.998C25.4687 39.9876 26.1523 39.9636 28.2855 39.8624C30.4187 39.7612 31.8639 39.4204 33.1351 38.9236C34.4499 38.4092 35.5647 37.7236 36.6731 36.61C37.7815 35.4964 38.4639 34.3804 38.9723 33.0628C39.4651 31.7908 39.7999 30.336 39.8923 28.2088C39.9855 26.074 40.0075 25.3924 39.9971 19.962C39.9867 14.5316 39.9623 13.8508 39.8611 11.718C39.7599 9.58516 39.4211 8.13676 38.9223 6.86516C38.4083 5.55036 37.7223 4.43716 36.6095 3.32716C35.4967 2.21716 34.3799 1.53516 33.0627 1.02796C31.7899 0.535564 30.3359 0.199964 28.2071 0.107964C26.0783 0.0159635 25.3931 -0.0076365 19.9615 0.0027635C14.5299 0.0131635 13.8499 0.0363635 11.7167 0.140364ZM11.9503 36.2956C10.0003 36.2108 8.94151 35.8868 8.23591 35.6156C7.30151 35.2556 6.63591 34.8204 5.93271 34.124C5.22951 33.4276 4.79751 32.7596 4.43271 31.8272C4.15871 31.1216 3.82871 30.064 3.73751 28.114C3.63831 26.0064 3.61751 25.3736 3.60591 20.034C3.59431 14.6944 3.61471 14.0624 3.70711 11.954C3.79031 10.0056 4.11631 8.94556 4.38711 8.24036C4.74711 7.30476 5.18071 6.64036 5.87871 5.93756C6.57671 5.23476 7.24271 4.80196 8.17591 4.43716C8.88071 4.16196 9.93831 3.83476 11.8875 3.74196C13.9967 3.64196 14.6287 3.62196 19.9675 3.61036C25.3063 3.59876 25.9399 3.61876 28.0499 3.71156C29.9983 3.79636 31.0587 4.11916 31.7631 4.39156C32.6979 4.75156 33.3631 5.18396 34.0659 5.88316C34.7687 6.58236 35.2019 7.24596 35.5667 8.18116C35.8423 8.88396 36.1695 9.94116 36.2615 11.8916C36.3619 14.0008 36.3847 14.6332 36.3943 19.9716C36.4039 25.31 36.3851 25.944 36.2927 28.0516C36.2075 30.0016 35.8843 31.0608 35.6127 31.7672C35.2527 32.7012 34.8187 33.3672 34.1203 34.0696C33.4219 34.772 32.7567 35.2048 31.8231 35.5696C31.1191 35.8444 30.0603 36.1724 28.1127 36.2652C26.0035 36.3644 25.3715 36.3852 20.0307 36.3968C14.6899 36.4084 14.0599 36.3868 11.9507 36.2956M28.2547 9.31116C28.2555 9.78587 28.3971 10.2497 28.6615 10.6439C28.9259 11.0382 29.3013 11.3452 29.7402 11.5261C30.179 11.707 30.6617 11.7536 31.1271 11.6602C31.5926 11.5668 32.0198 11.3374 32.3549 11.0011C32.6899 10.6648 32.9177 10.2367 33.0095 9.77096C33.1012 9.3052 33.0528 8.8227 32.8703 8.38447C32.6877 7.94625 32.3794 7.57199 31.9842 7.30903C31.5889 7.04607 31.1246 6.90622 30.6499 6.90716C30.0135 6.90844 29.4037 7.1624 28.9545 7.61322C28.5054 8.06403 28.2536 8.67478 28.2547 9.31116ZM9.73071 20.0204C9.74191 25.6924 14.3483 30.28 20.0191 30.2692C25.6899 30.2584 30.2807 25.6524 30.2699 19.9804C30.2591 14.3084 25.6515 9.71956 19.9799 9.73076C14.3083 9.74196 9.71991 14.3492 9.73071 20.0204ZM13.3331 20.0132C13.3305 18.6946 13.719 17.4049 14.4493 16.3071C15.1797 15.2093 16.2192 14.3527 17.4364 13.8457C18.6536 13.3387 19.9938 13.204 21.2876 13.4587C22.5813 13.7134 23.7705 14.346 24.7047 15.2765C25.6389 16.207 26.2762 17.3937 26.536 18.6864C26.7958 19.9791 26.6664 21.3199 26.1643 22.539C25.6621 23.7582 24.8096 24.8011 23.7147 25.5359C22.6199 26.2706 21.3317 26.6642 20.0131 26.6668C19.1376 26.6686 18.2703 26.498 17.4607 26.1646C16.6511 25.8312 15.9152 25.3415 15.2949 24.7237C14.6745 24.1058 14.182 23.3718 13.8454 22.5636C13.5088 21.7553 13.3347 20.8887 13.3331 20.0132Z" fill="#F9F7F2"/>
</g>
<defs>
<clipPath id="clip0_16_159">
<rect width="40" height="40" fill="white"/>
</clipPath>
</defs>
</svg>
