<svg width="30" height="30" viewBox="0 0 30 30" fill="none" xmlns="http://www.w3.org/2000/svg">
<g clip-path="url(#clip0_13_4)">
<path d="M8.78756 0.105395C7.19156 0.180695 6.10166 0.435395 5.14886 0.809795C4.16276 1.19409 3.32696 1.70979 2.49536 2.54439C1.66376 3.37899 1.15166 4.21539 0.770063 5.20299C0.400763 6.1579 0.150563 7.24869 0.0800633 8.8456C0.0095633 10.4425 -0.00603671 10.9558 0.00176329 15.0292C0.00956329 19.1026 0.0275633 19.6132 0.104963 21.2134C0.181163 22.8091 0.434963 23.8987 0.809363 24.8518C1.19426 25.8379 1.70936 26.6734 2.54426 27.5053C3.37916 28.3372 4.21496 28.8481 5.20496 29.2303C6.15896 29.599 7.25006 29.8504 8.84666 29.9203C10.4433 29.9902 10.9572 30.0064 15.0294 29.9986C19.1016 29.9908 19.6143 29.9728 21.2142 29.8969C22.8141 29.821 23.898 29.5654 24.8514 29.1928C25.8375 28.807 26.6736 28.2928 27.5049 27.4576C28.3362 26.6224 28.848 25.7854 29.2293 24.7972C29.5989 23.8432 29.85 22.7521 29.9193 21.1567C29.9892 19.5556 30.0057 19.0444 29.9979 14.9716C29.9901 10.8988 29.9718 10.3882 29.8959 8.7886C29.82 7.189 29.5659 6.10269 29.1918 5.14899C28.8063 4.16289 28.2918 3.32799 27.4572 2.49549C26.6226 1.66299 25.785 1.15149 24.7971 0.771095C23.8425 0.401795 22.752 0.150095 21.1554 0.0810947C19.5588 0.0120947 19.0449 -0.0056053 14.9712 0.0021947C10.8975 0.0099947 10.3875 0.0273947 8.78756 0.105395ZM8.96276 27.2218C7.50026 27.1582 6.70616 26.9152 6.17696 26.7118C5.47616 26.4418 4.97696 26.1154 4.44956 25.5931C3.92216 25.0708 3.59816 24.5698 3.32456 23.8705C3.11906 23.3413 2.87156 22.5481 2.80316 21.0856C2.72876 19.5049 2.71316 19.0303 2.70446 15.0256C2.69576 11.0209 2.71106 10.5469 2.78036 8.9656C2.84276 7.5043 3.08726 6.7093 3.29036 6.1804C3.56036 5.47869 3.88556 4.98039 4.40906 4.45329C4.93256 3.92619 5.43206 3.60159 6.13196 3.32799C6.66056 3.12159 7.45376 2.87619 8.91566 2.80659C10.4976 2.73159 10.9716 2.71659 14.9757 2.70789C18.9798 2.69919 19.455 2.71419 21.0375 2.78379C22.4988 2.84739 23.2941 3.08949 23.8224 3.29379C24.5235 3.56379 25.0224 3.8881 25.5495 4.4125C26.0766 4.9369 26.4015 5.4346 26.6751 6.136C26.8818 6.6631 27.1272 7.456 27.1962 8.9188C27.2715 10.5007 27.2886 10.975 27.2958 14.9788C27.303 18.9826 27.2889 19.4581 27.2196 21.0388C27.1557 22.5013 26.9133 23.2957 26.7096 23.8255C26.4396 24.526 26.1141 25.0255 25.5903 25.5523C25.0665 26.0791 24.5676 26.4037 23.8674 26.6773C23.3394 26.8834 22.5453 27.1294 21.0846 27.199C19.5027 27.2734 19.0287 27.289 15.0231 27.2977C11.0175 27.3064 10.545 27.2902 8.96306 27.2218M21.1911 6.9835C21.1917 7.33953 21.2978 7.68739 21.4961 7.98308C21.6944 8.27877 21.976 8.50901 22.3051 8.64468C22.6343 8.78035 22.9963 8.81536 23.3454 8.74527C23.6945 8.67519 24.0149 8.50316 24.2662 8.25095C24.5175 7.99873 24.6883 7.67766 24.7571 7.32834C24.8259 6.97902 24.7896 6.61715 24.6527 6.28848C24.5158 5.95981 24.2846 5.67911 23.9882 5.48189C23.6917 5.28467 23.3435 5.17978 22.9875 5.1805C22.5102 5.18145 22.0528 5.37192 21.7159 5.71004C21.3791 6.04815 21.1903 6.50621 21.1911 6.9835ZM7.29806 15.0154C7.30646 19.2694 10.7613 22.7101 15.0144 22.702C19.2675 22.6939 22.7106 19.2394 22.7025 14.9854C22.6944 10.7314 19.2387 7.28979 14.985 7.29819C10.7313 7.30659 7.28996 10.762 7.29806 15.0154ZM9.99986 15.01C9.99791 14.0211 10.2892 13.0538 10.837 12.2304C11.3848 11.4071 12.1645 10.7647 13.0774 10.3844C13.9903 10.0042 14.9954 9.90315 15.9657 10.0942C16.936 10.2852 17.8279 10.7596 18.5286 11.4575C19.2292 12.1554 19.7072 13.0454 19.902 14.0149C20.0969 14.9845 19.9999 15.99 19.6232 16.9044C19.2466 17.8188 18.6073 18.601 17.7861 19.152C16.9649 19.7031 15.9988 19.9982 15.0099 20.0002C14.3532 20.0016 13.7027 19.8736 13.0956 19.6235C12.4884 19.3735 11.9364 19.0063 11.4712 18.5429C11.0059 18.0795 10.6366 17.529 10.3841 16.9228C10.1316 16.3166 10.0011 15.6666 9.99986 15.01Z" fill="#1A2634"/>
</g>
<defs>
<clipPath id="clip0_13_4">
<rect width="30" height="30" fill="white"/>
</clipPath>
</defs>
</svg>
