<svg xmlns="http://www.w3.org/2000/svg" xmlns:xlink="http://www.w3.org/1999/xlink" width="500" zoomAndPan="magnify" viewBox="0 0 375 374.999991" height="500" preserveAspectRatio="xMidYMid meet" version="1.0"><defs><g/></defs><g fill="#000000" fill-opacity="1"><g transform="translate(44.522356, 210.631196)"><g><path d="M 17.703125 -73.5 C 16.117188 -73.5 14.390625 -73.351562 12.515625 -73.0625 C 10.648438 -72.769531 8.867188 -72.441406 7.171875 -72.078125 C 5.484375 -71.722656 4.097656 -71.398438 3.015625 -71.109375 C 1.941406 -70.828125 1.40625 -70.6875 1.40625 -70.6875 L 1.40625 -75.546875 L 70.359375 -75.546875 C 69.429688 -74.753906 68.28125 -73.507812 66.90625 -71.8125 C 65.539062 -70.125 64.175781 -68.363281 62.8125 -66.53125 C 61.445312 -64.695312 60.332031 -63.171875 59.46875 -61.953125 L 16.1875 -2.046875 L 52.671875 -2.046875 C 54.316406 -2.046875 56.078125 -2.1875 57.953125 -2.46875 C 59.828125 -2.757812 61.609375 -3.085938 63.296875 -3.453125 C 64.984375 -3.816406 66.363281 -4.140625 67.4375 -4.421875 C 68.519531 -4.710938 69.0625 -4.859375 69.0625 -4.859375 L 69.0625 0 L 0 0 C 0.21875 -0.21875 0.773438 -0.847656 1.671875 -1.890625 C 2.566406 -2.929688 3.644531 -4.222656 4.90625 -5.765625 C 6.164062 -7.316406 7.441406 -8.957031 8.734375 -10.6875 L 54.171875 -73.5 Z M 17.703125 -73.5 "/></g></g></g><g fill="#000000" fill-opacity="1"><g transform="translate(116.171155, 210.631196)"><g><path d="M 44.890625 -75.546875 L 71.984375 -10.578125 C 73.066406 -8.054688 74.179688 -5.753906 75.328125 -3.671875 C 76.484375 -1.585938 77.164062 -0.363281 77.375 0 L 64.328125 0 L 38.53125 -61.84375 C 37.882812 -63.425781 37.035156 -65.421875 35.984375 -67.828125 C 34.941406 -70.234375 33.921875 -72.226562 32.921875 -73.8125 C 32.203125 -70.21875 30.851562 -66.40625 28.875 -62.375 C 26.894531 -58.34375 24.644531 -54.257812 22.125 -50.125 C 19.601562 -45.988281 17.171875 -41.941406 14.828125 -37.984375 C 12.492188 -34.023438 10.570312 -30.285156 9.0625 -26.765625 C 7.125 -22.160156 6.222656 -18.453125 6.359375 -15.640625 C 6.503906 -12.835938 7.382812 -11.003906 9 -10.140625 C 10.625 -9.273438 12.734375 -9.457031 15.328125 -10.6875 C 16.910156 -11.476562 18.597656 -12.644531 20.390625 -14.1875 C 22.191406 -15.738281 24.023438 -17.46875 25.890625 -19.375 C 27.765625 -21.28125 29.53125 -23.164062 31.1875 -25.03125 C 32.84375 -26.90625 34.316406 -28.523438 35.609375 -29.890625 C 36.984375 -31.328125 38.53125 -32.421875 40.25 -33.171875 C 41.976562 -33.929688 43.707031 -33.914062 45.4375 -33.125 C 46.15625 -32.84375 46.960938 -32.285156 47.859375 -31.453125 C 48.765625 -30.628906 49.644531 -29.765625 50.5 -28.859375 C 51.363281 -27.960938 52.085938 -27.226562 52.671875 -26.65625 C 51.085938 -27.019531 49.320312 -26.710938 47.375 -25.734375 C 45.4375 -24.765625 43.566406 -23.488281 41.765625 -21.90625 C 39.753906 -20.175781 37.664062 -18.085938 35.5 -15.640625 C 33.34375 -13.203125 31.113281 -10.773438 28.8125 -8.359375 C 26.507812 -5.953125 24.097656 -3.957031 21.578125 -2.375 C 19.066406 -0.789062 16.476562 0 13.8125 0 C 8.125 0 4.3125 -2.300781 2.375 -6.90625 C 1.363281 -9.425781 1.035156 -12.125 1.390625 -15 C 1.753906 -17.875 2.566406 -20.804688 3.828125 -23.796875 C 5.085938 -26.785156 6.582031 -29.71875 8.3125 -32.59375 C 10.039062 -35.46875 11.800781 -38.179688 13.59375 -40.734375 C 15.394531 -43.296875 16.941406 -45.582031 18.234375 -47.59375 C 19.242188 -49.101562 20.484375 -51.082031 21.953125 -53.53125 C 23.429688 -55.976562 24.925781 -58.585938 26.4375 -61.359375 C 27.945312 -64.128906 29.222656 -66.769531 30.265625 -69.28125 C 31.316406 -71.800781 31.875 -73.890625 31.9375 -75.546875 Z M 44.890625 -75.546875 "/></g></g></g><g fill="#000000" fill-opacity="1"><g transform="translate(194.833854, 210.631196)"><g><path d="M 12.09375 -11.875 C 12.09375 -8.707031 12.269531 -5.9375 12.625 -3.5625 C 12.988281 -1.1875 13.171875 0 13.171875 0 L 0 0 C 0 0 0.175781 -1.1875 0.53125 -3.5625 C 0.894531 -5.9375 1.078125 -8.707031 1.078125 -11.875 L 1.078125 -63.671875 C 1.078125 -66.835938 0.894531 -69.609375 0.53125 -71.984375 C 0.175781 -74.359375 0 -75.546875 0 -75.546875 L 38.3125 -75.546875 C 42.34375 -75.546875 46.066406 -74.84375 49.484375 -73.4375 C 52.898438 -72.039062 55.664062 -69.9375 57.78125 -67.125 C 59.90625 -64.320312 60.96875 -60.757812 60.96875 -56.4375 C 60.96875 -52.414062 60.140625 -49.179688 58.484375 -46.734375 C 56.835938 -44.285156 54.644531 -42.359375 51.90625 -40.953125 C 49.175781 -39.554688 46.191406 -38.425781 42.953125 -37.5625 C 41.148438 -37.050781 39.257812 -36.5625 37.28125 -36.09375 C 35.300781 -35.625 33.378906 -35.101562 31.515625 -34.53125 L 37.453125 -34.53125 C 39.109375 -34.53125 40.296875 -34.347656 41.015625 -33.984375 C 41.734375 -33.628906 42.488281 -32.734375 43.28125 -31.296875 L 53.640625 -13.0625 C 54.359375 -11.832031 55.238281 -10.335938 56.28125 -8.578125 C 57.320312 -6.816406 58.378906 -5.144531 59.453125 -3.5625 C 60.535156 -1.976562 61.40625 -0.789062 62.0625 0 L 52.125 0 C 50.46875 0 49.222656 -0.335938 48.390625 -1.015625 C 47.566406 -1.703125 46.757812 -2.726562 45.96875 -4.09375 L 31.734375 -29.25 C 30.578125 -31.332031 29.082031 -32.316406 27.25 -32.203125 C 25.414062 -32.097656 23.742188 -31.289062 22.234375 -29.78125 C 21.660156 -29.132812 21.117188 -28.414062 20.609375 -27.625 C 20.109375 -26.832031 19.710938 -26.039062 19.421875 -25.25 C 19.566406 -27.550781 20.535156 -29.53125 22.328125 -31.1875 C 24.128906 -32.84375 26.21875 -34.28125 28.59375 -35.5 C 31.1875 -36.875 33.707031 -38.0625 36.15625 -39.0625 C 38.601562 -40.070312 40.816406 -41.242188 42.796875 -42.578125 C 44.773438 -43.910156 46.335938 -45.65625 47.484375 -47.8125 C 48.640625 -49.96875 49.21875 -52.84375 49.21875 -56.4375 C 49.21875 -61.1875 48.28125 -64.820312 46.40625 -67.34375 C 44.53125 -69.863281 41.992188 -71.609375 38.796875 -72.578125 C 35.597656 -73.546875 31.945312 -74.03125 27.84375 -74.03125 L 12.1875 -74.03125 C 12.1875 -63.675781 12.171875 -53.316406 12.140625 -42.953125 C 12.109375 -32.585938 12.09375 -22.226562 12.09375 -11.875 Z M 12.09375 -11.875 "/></g></g></g><g fill="#000000" fill-opacity="1"><g transform="translate(258.065982, 210.631196)"><g><path d="M 44.890625 -75.546875 L 71.984375 -10.578125 C 73.066406 -8.054688 74.179688 -5.753906 75.328125 -3.671875 C 76.484375 -1.585938 77.164062 -0.363281 77.375 0 L 64.328125 0 L 38.53125 -61.84375 C 37.882812 -63.425781 37.035156 -65.421875 35.984375 -67.828125 C 34.941406 -70.234375 33.921875 -72.226562 32.921875 -73.8125 C 32.203125 -70.21875 30.851562 -66.40625 28.875 -62.375 C 26.894531 -58.34375 24.644531 -54.257812 22.125 -50.125 C 19.601562 -45.988281 17.171875 -41.941406 14.828125 -37.984375 C 12.492188 -34.023438 10.570312 -30.285156 9.0625 -26.765625 C 7.125 -22.160156 6.222656 -18.453125 6.359375 -15.640625 C 6.503906 -12.835938 7.382812 -11.003906 9 -10.140625 C 10.625 -9.273438 12.734375 -9.457031 15.328125 -10.6875 C 16.910156 -11.476562 18.597656 -12.644531 20.390625 -14.1875 C 22.191406 -15.738281 24.023438 -17.46875 25.890625 -19.375 C 27.765625 -21.28125 29.53125 -23.164062 31.1875 -25.03125 C 32.84375 -26.90625 34.316406 -28.523438 35.609375 -29.890625 C 36.984375 -31.328125 38.53125 -32.421875 40.25 -33.171875 C 41.976562 -33.929688 43.707031 -33.914062 45.4375 -33.125 C 46.15625 -32.84375 46.960938 -32.285156 47.859375 -31.453125 C 48.765625 -30.628906 49.644531 -29.765625 50.5 -28.859375 C 51.363281 -27.960938 52.085938 -27.226562 52.671875 -26.65625 C 51.085938 -27.019531 49.320312 -26.710938 47.375 -25.734375 C 45.4375 -24.765625 43.566406 -23.488281 41.765625 -21.90625 C 39.753906 -20.175781 37.664062 -18.085938 35.5 -15.640625 C 33.34375 -13.203125 31.113281 -10.773438 28.8125 -8.359375 C 26.507812 -5.953125 24.097656 -3.957031 21.578125 -2.375 C 19.066406 -0.789062 16.476562 0 13.8125 0 C 8.125 0 4.3125 -2.300781 2.375 -6.90625 C 1.363281 -9.425781 1.035156 -12.125 1.390625 -15 C 1.753906 -17.875 2.566406 -20.804688 3.828125 -23.796875 C 5.085938 -26.785156 6.582031 -29.71875 8.3125 -32.59375 C 10.039062 -35.46875 11.800781 -38.179688 13.59375 -40.734375 C 15.394531 -43.296875 16.941406 -45.582031 18.234375 -47.59375 C 19.242188 -49.101562 20.484375 -51.082031 21.953125 -53.53125 C 23.429688 -55.976562 24.925781 -58.585938 26.4375 -61.359375 C 27.945312 -64.128906 29.222656 -66.769531 30.265625 -69.28125 C 31.316406 -71.800781 31.875 -73.890625 31.9375 -75.546875 Z M 44.890625 -75.546875 "/></g></g></g><g fill="#000000" fill-opacity="1"><g transform="translate(42.846919, 243.939404)"><g><path d="M 7.34375 0 L 5.171875 0 L 0.421875 -16.015625 L 2.4375 -16.015625 L 6.40625 -2.765625 L 10.359375 -16.015625 L 12.203125 -16.015625 L 16.171875 -2.75 L 20.125 -16.015625 L 22.140625 -16.015625 L 17.390625 0 L 15.203125 0 L 11.28125 -12.875 Z M 7.34375 0 "/></g></g></g><g fill="#000000" fill-opacity="1"><g transform="translate(64.35935, 243.939404)"><g><path d="M 12.015625 0 L 1.65625 0 L 1.65625 -16.015625 L 12.015625 -16.015625 L 12.015625 -14.28125 L 3.59375 -14.28125 L 3.59375 -8.90625 L 11.03125 -8.90625 L 11.03125 -7.1875 L 3.59375 -7.1875 L 3.59375 -1.75 L 12.015625 -1.75 Z M 12.015625 0 "/></g></g></g><g fill="#000000" fill-opacity="1"><g transform="translate(76.259145, 243.939404)"><g><path d="M 6.046875 0 L 1.65625 0 L 1.65625 -16.015625 L 6.0625 -16.015625 C 8.738281 -16.015625 10.78125 -15.316406 12.1875 -13.921875 C 13.59375 -12.523438 14.296875 -10.535156 14.296875 -7.953125 C 14.296875 -5.421875 13.585938 -3.460938 12.171875 -2.078125 C 10.765625 -0.691406 8.722656 0 6.046875 0 Z M 3.59375 -14.28125 L 3.59375 -1.75 L 6.03125 -1.75 C 6.863281 -1.75 7.660156 -1.832031 8.421875 -2 C 9.191406 -2.175781 9.867188 -2.492188 10.453125 -2.953125 C 11.046875 -3.410156 11.515625 -4.039062 11.859375 -4.84375 C 12.203125 -5.65625 12.375 -6.691406 12.375 -7.953125 C 12.375 -9.523438 12.101562 -10.769531 11.5625 -11.6875 C 11.019531 -12.601562 10.273438 -13.265625 9.328125 -13.671875 C 8.390625 -14.078125 7.296875 -14.28125 6.046875 -14.28125 Z M 3.59375 -14.28125 "/></g></g></g><g fill="#000000" fill-opacity="1"><g transform="translate(90.59359, 243.939404)"><g><path d="M 6.046875 0 L 1.65625 0 L 1.65625 -16.015625 L 6.0625 -16.015625 C 8.738281 -16.015625 10.78125 -15.316406 12.1875 -13.921875 C 13.59375 -12.523438 14.296875 -10.535156 14.296875 -7.953125 C 14.296875 -5.421875 13.585938 -3.460938 12.171875 -2.078125 C 10.765625 -0.691406 8.722656 0 6.046875 0 Z M 3.59375 -14.28125 L 3.59375 -1.75 L 6.03125 -1.75 C 6.863281 -1.75 7.660156 -1.832031 8.421875 -2 C 9.191406 -2.175781 9.867188 -2.492188 10.453125 -2.953125 C 11.046875 -3.410156 11.515625 -4.039062 11.859375 -4.84375 C 12.203125 -5.65625 12.375 -6.691406 12.375 -7.953125 C 12.375 -9.523438 12.101562 -10.769531 11.5625 -11.6875 C 11.019531 -12.601562 10.273438 -13.265625 9.328125 -13.671875 C 8.390625 -14.078125 7.296875 -14.28125 6.046875 -14.28125 Z M 3.59375 -14.28125 "/></g></g></g><g fill="#000000" fill-opacity="1"><g transform="translate(104.928035, 243.939404)"><g><path d="M 3.59375 0 L 1.65625 0 L 1.65625 -16.015625 L 3.59375 -16.015625 Z M 3.59375 0 "/></g></g></g><g fill="#000000" fill-opacity="1"><g transform="translate(109.16711, 243.939404)"><g><path d="M 3.59375 0 L 1.65625 0 L 1.65625 -16.015625 L 4.46875 -16.015625 L 11.671875 -1.9375 L 11.671875 -16.015625 L 13.59375 -16.015625 L 13.59375 0 L 10.765625 0 L 3.59375 -14.046875 Z M 3.59375 0 "/></g></g></g><g fill="#000000" fill-opacity="1"><g transform="translate(123.396613, 243.939404)"><g><path d="M 8.609375 0.203125 C 7.296875 0.203125 6.160156 -0.0195312 5.203125 -0.46875 C 4.253906 -0.925781 3.472656 -1.539062 2.859375 -2.3125 C 2.242188 -3.09375 1.785156 -3.972656 1.484375 -4.953125 C 1.191406 -5.929688 1.046875 -6.945312 1.046875 -8 C 1.046875 -9.050781 1.195312 -10.066406 1.5 -11.046875 C 1.800781 -12.035156 2.253906 -12.921875 2.859375 -13.703125 C 3.472656 -14.484375 4.253906 -15.097656 5.203125 -15.546875 C 6.160156 -16.003906 7.289062 -16.234375 8.59375 -16.234375 C 10.382812 -16.234375 11.847656 -15.804688 12.984375 -14.953125 C 14.128906 -14.097656 14.914062 -12.984375 15.34375 -11.609375 L 13.1875 -11.609375 C 12.832031 -12.484375 12.257812 -13.1875 11.46875 -13.71875 C 10.6875 -14.25 9.710938 -14.515625 8.546875 -14.515625 C 7.566406 -14.515625 6.726562 -14.332031 6.03125 -13.96875 C 5.332031 -13.613281 4.757812 -13.128906 4.3125 -12.515625 C 3.863281 -11.910156 3.53125 -11.222656 3.3125 -10.453125 C 3.09375 -9.679688 2.984375 -8.882812 2.984375 -8.0625 C 2.984375 -6.90625 3.1875 -5.820312 3.59375 -4.8125 C 4.007812 -3.8125 4.632812 -3.007812 5.46875 -2.40625 C 6.300781 -1.8125 7.34375 -1.515625 8.59375 -1.515625 C 9.632812 -1.515625 10.539062 -1.71875 11.3125 -2.125 C 12.082031 -2.539062 12.675781 -3.132812 13.09375 -3.90625 C 13.519531 -4.675781 13.734375 -5.59375 13.734375 -6.65625 L 9.890625 -6.65625 L 9.890625 -8.375 L 15.625 -8.375 L 15.625 0 L 13.859375 0 L 13.859375 -2.28125 C 13.296875 -1.4375 12.53125 -0.8125 11.5625 -0.40625 C 10.601562 0 9.617188 0.203125 8.609375 0.203125 Z M 8.609375 0.203125 "/></g></g></g><g fill="#000000" fill-opacity="1"><g transform="translate(139.30517, 243.939404)"><g/></g></g><g fill="#000000" fill-opacity="1"><g transform="translate(144.15291, 243.939404)"><g><path d="M 8.4375 0.203125 C 7.175781 0.203125 6.082031 -0.015625 5.15625 -0.453125 C 4.226562 -0.890625 3.457031 -1.492188 2.84375 -2.265625 C 2.238281 -3.035156 1.785156 -3.914062 1.484375 -4.90625 C 1.191406 -5.894531 1.046875 -6.929688 1.046875 -8.015625 C 1.046875 -9.109375 1.191406 -10.144531 1.484375 -11.125 C 1.785156 -12.101562 2.238281 -12.976562 2.84375 -13.75 C 3.457031 -14.519531 4.226562 -15.125 5.15625 -15.5625 C 6.082031 -16.007812 7.175781 -16.234375 8.4375 -16.234375 C 9.632812 -16.234375 10.679688 -16.035156 11.578125 -15.640625 C 12.484375 -15.253906 13.210938 -14.707031 13.765625 -14 C 14.328125 -13.300781 14.6875 -12.5 14.84375 -11.59375 L 12.75 -11.59375 C 12.550781 -12.488281 12.066406 -13.195312 11.296875 -13.71875 C 10.523438 -14.25 9.5625 -14.515625 8.40625 -14.515625 C 7.207031 -14.515625 6.207031 -14.234375 5.40625 -13.671875 C 4.601562 -13.109375 4 -12.335938 3.59375 -11.359375 C 3.1875 -10.378906 2.984375 -9.265625 2.984375 -8.015625 C 2.984375 -6.773438 3.1875 -5.660156 3.59375 -4.671875 C 4 -3.679688 4.601562 -2.90625 5.40625 -2.34375 C 6.207031 -1.789062 7.207031 -1.515625 8.40625 -1.515625 C 9.5625 -1.515625 10.523438 -1.789062 11.296875 -2.34375 C 12.066406 -2.90625 12.550781 -3.738281 12.75 -4.84375 L 14.84375 -4.84375 C 14.59375 -3.289062 13.910156 -2.0625 12.796875 -1.15625 C 11.679688 -0.25 10.226562 0.203125 8.4375 0.203125 Z M 8.4375 0.203125 "/></g></g></g><g fill="#000000" fill-opacity="1"><g transform="translate(158.823159, 243.939404)"><g><path d="M 8.484375 0.203125 C 7.222656 0.203125 6.125 -0.015625 5.1875 -0.453125 C 4.257812 -0.890625 3.488281 -1.492188 2.875 -2.265625 C 2.257812 -3.035156 1.800781 -3.914062 1.5 -4.90625 C 1.195312 -5.894531 1.046875 -6.929688 1.046875 -8.015625 C 1.046875 -9.109375 1.195312 -10.148438 1.5 -11.140625 C 1.800781 -12.128906 2.257812 -13.003906 2.875 -13.765625 C 3.488281 -14.523438 4.257812 -15.125 5.1875 -15.5625 C 6.125 -16.007812 7.222656 -16.234375 8.484375 -16.234375 C 9.753906 -16.234375 10.859375 -16.007812 11.796875 -15.5625 C 12.734375 -15.125 13.507812 -14.523438 14.125 -13.765625 C 14.75 -13.003906 15.207031 -12.128906 15.5 -11.140625 C 15.800781 -10.148438 15.953125 -9.109375 15.953125 -8.015625 C 15.953125 -6.929688 15.800781 -5.894531 15.5 -4.90625 C 15.207031 -3.914062 14.75 -3.035156 14.125 -2.265625 C 13.507812 -1.492188 12.734375 -0.890625 11.796875 -0.453125 C 10.859375 -0.015625 9.753906 0.203125 8.484375 0.203125 Z M 8.484375 -1.53125 C 9.691406 -1.53125 10.707031 -1.8125 11.53125 -2.375 C 12.351562 -2.9375 12.972656 -3.707031 13.390625 -4.6875 C 13.816406 -5.664062 14.03125 -6.773438 14.03125 -8.015625 C 14.03125 -9.265625 13.816406 -10.375 13.390625 -11.34375 C 12.972656 -12.320312 12.351562 -13.085938 11.53125 -13.640625 C 10.707031 -14.203125 9.691406 -14.484375 8.484375 -14.484375 C 7.304688 -14.484375 6.304688 -14.203125 5.484375 -13.640625 C 4.671875 -13.085938 4.050781 -12.320312 3.625 -11.34375 C 3.195312 -10.375 2.984375 -9.265625 2.984375 -8.015625 C 2.984375 -6.773438 3.195312 -5.664062 3.625 -4.6875 C 4.050781 -3.707031 4.671875 -2.9375 5.484375 -2.375 C 6.304688 -1.8125 7.304688 -1.53125 8.484375 -1.53125 Z M 8.484375 -1.53125 "/></g></g></g><g fill="#000000" fill-opacity="1"><g transform="translate(174.81567, 243.939404)"><g><path d="M 3.59375 0 L 1.65625 0 L 1.65625 -16.015625 L 4.46875 -16.015625 L 11.671875 -1.9375 L 11.671875 -16.015625 L 13.59375 -16.015625 L 13.59375 0 L 10.765625 0 L 3.59375 -14.046875 Z M 3.59375 0 "/></g></g></g><g fill="#000000" fill-opacity="1"><g transform="translate(189.045173, 243.939404)"><g><path d="M 7.640625 0 L 5.71875 0 L 5.71875 -14.28125 L 0.296875 -14.28125 L 0.296875 -16.015625 L 13.078125 -16.015625 L 13.078125 -14.28125 L 7.640625 -14.28125 Z M 7.640625 0 "/></g></g></g><g fill="#000000" fill-opacity="1"><g transform="translate(201.385725, 243.939404)"><g><path d="M 12.015625 0 L 1.65625 0 L 1.65625 -16.015625 L 12.015625 -16.015625 L 12.015625 -14.28125 L 3.59375 -14.28125 L 3.59375 -8.90625 L 11.03125 -8.90625 L 11.03125 -7.1875 L 3.59375 -7.1875 L 3.59375 -1.75 L 12.015625 -1.75 Z M 12.015625 0 "/></g></g></g><g fill="#000000" fill-opacity="1"><g transform="translate(213.28552, 243.939404)"><g><path d="M 3.59375 0 L 1.65625 0 L 1.65625 -16.015625 L 4.46875 -16.015625 L 11.671875 -1.9375 L 11.671875 -16.015625 L 13.59375 -16.015625 L 13.59375 0 L 10.765625 0 L 3.59375 -14.046875 Z M 3.59375 0 "/></g></g></g><g fill="#000000" fill-opacity="1"><g transform="translate(227.515023, 243.939404)"><g><path d="M 7.640625 0 L 5.71875 0 L 5.71875 -14.28125 L 0.296875 -14.28125 L 0.296875 -16.015625 L 13.078125 -16.015625 L 13.078125 -14.28125 L 7.640625 -14.28125 Z M 7.640625 0 "/></g></g></g><g fill="#000000" fill-opacity="1"><g transform="translate(239.855575, 243.939404)"><g/></g></g><g fill="#000000" fill-opacity="1"><g transform="translate(244.703315, 243.939404)"><g><path d="M 8.4375 0.203125 C 7.175781 0.203125 6.082031 -0.015625 5.15625 -0.453125 C 4.226562 -0.890625 3.457031 -1.492188 2.84375 -2.265625 C 2.238281 -3.035156 1.785156 -3.914062 1.484375 -4.90625 C 1.191406 -5.894531 1.046875 -6.929688 1.046875 -8.015625 C 1.046875 -9.109375 1.191406 -10.144531 1.484375 -11.125 C 1.785156 -12.101562 2.238281 -12.976562 2.84375 -13.75 C 3.457031 -14.519531 4.226562 -15.125 5.15625 -15.5625 C 6.082031 -16.007812 7.175781 -16.234375 8.4375 -16.234375 C 9.632812 -16.234375 10.679688 -16.035156 11.578125 -15.640625 C 12.484375 -15.253906 13.210938 -14.707031 13.765625 -14 C 14.328125 -13.300781 14.6875 -12.5 14.84375 -11.59375 L 12.75 -11.59375 C 12.550781 -12.488281 12.066406 -13.195312 11.296875 -13.71875 C 10.523438 -14.25 9.5625 -14.515625 8.40625 -14.515625 C 7.207031 -14.515625 6.207031 -14.234375 5.40625 -13.671875 C 4.601562 -13.109375 4 -12.335938 3.59375 -11.359375 C 3.1875 -10.378906 2.984375 -9.265625 2.984375 -8.015625 C 2.984375 -6.773438 3.1875 -5.660156 3.59375 -4.671875 C 4 -3.679688 4.601562 -2.90625 5.40625 -2.34375 C 6.207031 -1.789062 7.207031 -1.515625 8.40625 -1.515625 C 9.5625 -1.515625 10.523438 -1.789062 11.296875 -2.34375 C 12.066406 -2.90625 12.550781 -3.738281 12.75 -4.84375 L 14.84375 -4.84375 C 14.59375 -3.289062 13.910156 -2.0625 12.796875 -1.15625 C 11.679688 -0.25 10.226562 0.203125 8.4375 0.203125 Z M 8.4375 0.203125 "/></g></g></g><g fill="#000000" fill-opacity="1"><g transform="translate(259.373564, 243.939404)"><g><path d="M 9.828125 -7.125 L 12.921875 0 L 10.796875 0 L 7.953125 -6.765625 L 3.59375 -6.765625 L 3.59375 0 L 1.65625 0 L 1.65625 -16.015625 L 7.625 -16.015625 C 9.164062 -16.015625 10.394531 -15.632812 11.3125 -14.875 C 12.238281 -14.125 12.703125 -12.976562 12.703125 -11.4375 C 12.703125 -10.363281 12.445312 -9.457031 11.9375 -8.71875 C 11.4375 -7.976562 10.734375 -7.445312 9.828125 -7.125 Z M 3.59375 -8.484375 L 7.375 -8.484375 C 8.476562 -8.484375 9.320312 -8.726562 9.90625 -9.21875 C 10.5 -9.71875 10.796875 -10.4375 10.796875 -11.375 C 10.796875 -12.300781 10.492188 -13.015625 9.890625 -13.515625 C 9.285156 -14.023438 8.445312 -14.28125 7.375 -14.28125 L 3.59375 -14.28125 Z M 3.59375 -8.484375 "/></g></g></g><g fill="#000000" fill-opacity="1"><g transform="translate(272.196851, 243.939404)"><g><path d="M 12.015625 0 L 1.65625 0 L 1.65625 -16.015625 L 12.015625 -16.015625 L 12.015625 -14.28125 L 3.59375 -14.28125 L 3.59375 -8.90625 L 11.03125 -8.90625 L 11.03125 -7.1875 L 3.59375 -7.1875 L 3.59375 -1.75 L 12.015625 -1.75 Z M 12.015625 0 "/></g></g></g><g fill="#000000" fill-opacity="1"><g transform="translate(284.096646, 243.939404)"><g><path d="M 2.25 0 L 0.296875 0 L 6.1875 -16.015625 L 8.375 -16.015625 L 14.28125 0 L 12.328125 0 L 10.921875 -3.921875 L 3.65625 -3.921875 Z M 7.28125 -14.046875 L 4.3125 -5.65625 L 10.265625 -5.65625 Z M 7.28125 -14.046875 "/></g></g></g><g fill="#000000" fill-opacity="1"><g transform="translate(297.63354, 243.939404)"><g><path d="M 7.640625 0 L 5.71875 0 L 5.71875 -14.28125 L 0.296875 -14.28125 L 0.296875 -16.015625 L 13.078125 -16.015625 L 13.078125 -14.28125 L 7.640625 -14.28125 Z M 7.640625 0 "/></g></g></g><g fill="#000000" fill-opacity="1"><g transform="translate(309.97407, 243.939404)"><g><path d="M 8.484375 0.203125 C 7.222656 0.203125 6.125 -0.015625 5.1875 -0.453125 C 4.257812 -0.890625 3.488281 -1.492188 2.875 -2.265625 C 2.257812 -3.035156 1.800781 -3.914062 1.5 -4.90625 C 1.195312 -5.894531 1.046875 -6.929688 1.046875 -8.015625 C 1.046875 -9.109375 1.195312 -10.148438 1.5 -11.140625 C 1.800781 -12.128906 2.257812 -13.003906 2.875 -13.765625 C 3.488281 -14.523438 4.257812 -15.125 5.1875 -15.5625 C 6.125 -16.007812 7.222656 -16.234375 8.484375 -16.234375 C 9.753906 -16.234375 10.859375 -16.007812 11.796875 -15.5625 C 12.734375 -15.125 13.507812 -14.523438 14.125 -13.765625 C 14.75 -13.003906 15.207031 -12.128906 15.5 -11.140625 C 15.800781 -10.148438 15.953125 -9.109375 15.953125 -8.015625 C 15.953125 -6.929688 15.800781 -5.894531 15.5 -4.90625 C 15.207031 -3.914062 14.75 -3.035156 14.125 -2.265625 C 13.507812 -1.492188 12.734375 -0.890625 11.796875 -0.453125 C 10.859375 -0.015625 9.753906 0.203125 8.484375 0.203125 Z M 8.484375 -1.53125 C 9.691406 -1.53125 10.707031 -1.8125 11.53125 -2.375 C 12.351562 -2.9375 12.972656 -3.707031 13.390625 -4.6875 C 13.816406 -5.664062 14.03125 -6.773438 14.03125 -8.015625 C 14.03125 -9.265625 13.816406 -10.375 13.390625 -11.34375 C 12.972656 -12.320312 12.351562 -13.085938 11.53125 -13.640625 C 10.707031 -14.203125 9.691406 -14.484375 8.484375 -14.484375 C 7.304688 -14.484375 6.304688 -14.203125 5.484375 -13.640625 C 4.671875 -13.085938 4.050781 -12.320312 3.625 -11.34375 C 3.195312 -10.375 2.984375 -9.265625 2.984375 -8.015625 C 2.984375 -6.773438 3.195312 -5.664062 3.625 -4.6875 C 4.050781 -3.707031 4.671875 -2.9375 5.484375 -2.375 C 6.304688 -1.8125 7.304688 -1.53125 8.484375 -1.53125 Z M 8.484375 -1.53125 "/></g></g></g><g fill="#000000" fill-opacity="1"><g transform="translate(325.966592, 243.939404)"><g><path d="M 9.828125 -7.125 L 12.921875 0 L 10.796875 0 L 7.953125 -6.765625 L 3.59375 -6.765625 L 3.59375 0 L 1.65625 0 L 1.65625 -16.015625 L 7.625 -16.015625 C 9.164062 -16.015625 10.394531 -15.632812 11.3125 -14.875 C 12.238281 -14.125 12.703125 -12.976562 12.703125 -11.4375 C 12.703125 -10.363281 12.445312 -9.457031 11.9375 -8.71875 C 11.4375 -7.976562 10.734375 -7.445312 9.828125 -7.125 Z M 3.59375 -8.484375 L 7.375 -8.484375 C 8.476562 -8.484375 9.320312 -8.726562 9.90625 -9.21875 C 10.5 -9.71875 10.796875 -10.4375 10.796875 -11.375 C 10.796875 -12.300781 10.492188 -13.015625 9.890625 -13.515625 C 9.285156 -14.023438 8.445312 -14.28125 7.375 -14.28125 L 3.59375 -14.28125 Z M 3.59375 -8.484375 "/></g></g></g></svg>