<svg width="100" height="100" viewBox="0 0 100 100" fill="none" xmlns="http://www.w3.org/2000/svg">
<path d="M16.5935 36.5683C16.1705 36.5683 15.7101 36.6079 15.2101 36.685C14.7122 36.7631 14.2372 36.8506 13.7851 36.9475C13.3351 37.0423 12.9653 37.1287 12.6768 37.2058C12.3903 37.2808 12.2476 37.3183 12.2476 37.3183V36.0225H30.6351C30.3872 36.2339 30.081 36.5662 29.7143 37.0183C29.3497 37.4683 28.9862 37.9381 28.6226 38.4266C28.258 38.9162 27.9612 39.3225 27.731 39.6475L16.1893 55.6225H25.9185C26.357 55.6225 26.8268 55.585 27.3268 55.51C27.8268 55.4329 28.3018 55.3454 28.7518 55.2475C29.2018 55.1506 29.5695 55.0641 29.856 54.9891C30.1445 54.912 30.2893 54.8725 30.2893 54.8725V56.1683H11.8726C11.931 56.11 12.0789 55.9423 12.3185 55.6641C12.557 55.387 12.8445 55.0423 13.181 54.6308C13.5164 54.2173 13.857 53.7798 14.2018 53.3183L26.3185 36.5683H16.5935Z" fill="#F9F7F2"/>
<path d="M42.9498 36.0225L50.1748 53.3475C50.4634 54.0204 50.7602 54.6339 51.0665 55.1891C51.3748 55.7454 51.5561 56.0714 51.6123 56.1683H48.1332L41.254 39.6766C41.0811 39.2548 40.855 38.7225 40.5748 38.0808C40.2967 37.4391 40.0248 36.9079 39.7581 36.485C39.5665 37.4433 39.2061 38.46 38.679 39.535C38.1509 40.61 37.5509 41.6995 36.879 42.8016C36.2061 43.9048 35.5581 44.9839 34.9331 46.0391C34.3102 47.0954 33.7977 48.0923 33.3956 49.0308C32.879 50.2589 32.6384 51.2475 32.6748 51.9975C32.7134 52.7454 32.9477 53.2339 33.379 53.4641C33.8123 53.6954 34.3748 53.6464 35.0665 53.3183C35.4884 53.1079 35.9384 52.7964 36.4165 52.385C36.8967 51.9714 37.3852 51.51 37.8831 51.0016C38.3831 50.4933 38.854 49.9912 39.2956 49.4933C39.7373 48.9933 40.13 48.562 40.4748 48.1975C40.8415 47.8141 41.254 47.5225 41.7123 47.3225C42.1727 47.1204 42.6342 47.1245 43.0957 47.335C43.2873 47.41 43.5019 47.5589 43.7415 47.7808C43.9832 48.0006 44.2175 48.2308 44.4457 48.4725C44.6759 48.712 44.8686 48.9079 45.0248 49.06C44.6019 48.9631 44.1311 49.0454 43.6123 49.3058C43.0957 49.5641 42.5967 49.9048 42.1165 50.3266C41.58 50.7881 41.0227 51.3454 40.4456 51.9975C39.8706 52.6475 39.2759 53.2954 38.6623 53.9391C38.0477 54.5808 37.405 55.1131 36.7331 55.535C36.0634 55.9579 35.3727 56.1683 34.6623 56.1683C33.1456 56.1683 32.129 55.5548 31.6123 54.3266C31.3425 53.6548 31.255 52.935 31.3498 52.1683C31.4467 51.4016 31.6634 50.6204 31.9998 49.8225C32.3352 49.0256 32.7342 48.2433 33.1956 47.4766C33.6561 46.71 34.1259 45.987 34.604 45.3058C35.0842 44.6225 35.4967 44.0131 35.8415 43.4766C36.1102 43.0745 36.4415 42.5464 36.8331 41.8933C37.2269 41.2412 37.6259 40.5454 38.029 39.8058C38.4311 39.0673 38.7717 38.3631 39.0498 37.6933C39.33 37.0214 39.479 36.4641 39.4956 36.0225H42.9498Z" fill="#F9F7F2"/>
<path d="M55.1807 53.0016C55.1807 53.8464 55.2276 54.585 55.3224 55.2183C55.4192 55.8516 55.4682 56.1683 55.4682 56.1683H51.9557C51.9557 56.1683 52.0026 55.8516 52.0974 55.2183C52.1942 54.585 52.2432 53.8464 52.2432 53.0016V39.1891C52.2432 38.3454 52.1942 37.6058 52.0974 36.9725C52.0026 36.3391 51.9557 36.0225 51.9557 36.0225H62.1724C63.2474 36.0225 64.2401 36.21 65.1515 36.585C66.0619 36.9579 66.7994 37.5183 67.364 38.2683C67.9307 39.0162 68.214 39.9662 68.214 41.1183C68.214 42.1912 67.9932 43.0537 67.5515 43.7058C67.1119 44.3589 66.5276 44.8725 65.7974 45.2475C65.0692 45.6204 64.2734 45.9214 63.4099 46.1516C62.9286 46.2881 62.4244 46.4183 61.8974 46.5433C61.3692 46.6683 60.8567 46.8079 60.3599 46.96H61.9432C62.3849 46.96 62.7015 47.0089 62.8932 47.1058C63.0849 47.2006 63.2859 47.4391 63.4974 47.8225L66.2599 52.685C66.4515 53.0131 66.6859 53.412 66.964 53.8808C67.2411 54.3506 67.5234 54.7964 67.8099 55.2183C68.0984 55.6412 68.3307 55.9579 68.5057 56.1683H65.8557C65.414 56.1683 65.0817 56.0787 64.8599 55.8975C64.6401 55.7141 64.4244 55.4412 64.214 55.0766L60.4182 48.3683C60.1099 47.8131 59.7109 47.5506 59.2224 47.5808C58.7328 47.6089 58.2869 47.8245 57.8849 48.2266C57.7317 48.3995 57.5869 48.5912 57.4515 48.8016C57.3182 49.0131 57.2119 49.2245 57.1349 49.435C57.1734 48.8214 57.4317 48.2933 57.9099 47.8516C58.3901 47.41 58.9474 47.0266 59.5807 46.7016C60.2724 46.335 60.9442 46.0183 61.5974 45.7516C62.2494 45.4829 62.8401 45.1704 63.3682 44.8141C63.8953 44.4589 64.3119 43.9933 64.6182 43.4183C64.9265 42.8433 65.0807 42.0766 65.0807 41.1183C65.0807 39.8516 64.8307 38.8829 64.3307 38.21C63.8307 37.5381 63.1536 37.0725 62.3015 36.8141C61.4484 36.5558 60.4744 36.4266 59.3807 36.4266H55.2057C55.2057 39.1881 55.2015 41.9506 55.1932 44.7141C55.1849 47.4787 55.1807 50.2412 55.1807 53.0016Z" fill="#F9F7F2"/>
<path d="M80.7884 36.0225L88.0134 53.3475C88.302 54.0204 88.5988 54.6339 88.9051 55.1891C89.2134 55.7454 89.3947 56.0714 89.4509 56.1683H85.9718L79.0926 39.6766C78.9197 39.2548 78.6936 38.7225 78.4134 38.0808C78.1353 37.4391 77.8634 36.9079 77.5968 36.485C77.4051 37.4433 77.0447 38.46 76.5176 39.535C75.9895 40.61 75.3895 41.6995 74.7176 42.8016C74.0447 43.9048 73.3968 44.9839 72.7718 46.0391C72.1488 47.0954 71.6363 48.0923 71.2343 49.0308C70.7176 50.2589 70.477 51.2475 70.5134 51.9975C70.552 52.7454 70.7863 53.2339 71.2176 53.4641C71.6509 53.6954 72.2134 53.6464 72.9051 53.3183C73.327 53.1079 73.777 52.7964 74.2551 52.385C74.7353 51.9714 75.2238 51.51 75.7218 51.0016C76.2218 50.4933 76.6926 49.9912 77.1343 49.4933C77.5759 48.9933 77.9686 48.562 78.3134 48.1975C78.6801 47.8141 79.0926 47.5225 79.5509 47.3225C80.0113 47.1204 80.4728 47.1245 80.9343 47.335C81.1259 47.41 81.3405 47.5589 81.5801 47.7808C81.8218 48.0006 82.0561 48.2308 82.2843 48.4725C82.5145 48.712 82.7072 48.9079 82.8634 49.06C82.4405 48.9631 81.9697 49.0454 81.4509 49.3058C80.9343 49.5641 80.4353 49.9048 79.9551 50.3266C79.4186 50.7881 78.8613 51.3454 78.2843 51.9975C77.7093 52.6475 77.1145 53.2954 76.5009 53.9391C75.8863 54.5808 75.2436 55.1131 74.5718 55.535C73.902 55.9579 73.2113 56.1683 72.5009 56.1683C70.9843 56.1683 69.9676 55.5548 69.4509 54.3266C69.1811 53.6548 69.0936 52.935 69.1884 52.1683C69.2853 51.4016 69.502 50.6204 69.8384 49.8225C70.1738 49.0256 70.5728 48.2433 71.0343 47.4766C71.4947 46.71 71.9645 45.987 72.4426 45.3058C72.9228 44.6225 73.3353 44.0131 73.6801 43.4766C73.9488 43.0745 74.2801 42.5464 74.6718 41.8933C75.0655 41.2412 75.4645 40.5454 75.8676 39.8058C76.2697 39.0673 76.6103 38.3631 76.8884 37.6933C77.1686 37.0214 77.3176 36.4641 77.3343 36.0225H80.7884Z" fill="#F9F7F2"/>
<path d="M13.3842 65.0506H12.805L11.5383 60.7798H12.0758L13.1342 64.3131L14.1883 60.7798H14.68L15.7383 64.3173L16.7925 60.7798H17.33L16.0633 65.0506H15.48L14.4342 61.6173L13.3842 65.0506Z" fill="#F9F7F2"/>
<path d="M20.3667 65.0506H17.6042V60.7798H20.3667V61.2423H18.1208V62.6756H20.1042V63.134H18.1208V64.584H20.3667V65.0506Z" fill="#F9F7F2"/>
<path d="M21.9483 65.0506H20.7774V60.7798H21.9524C22.666 60.7798 23.2108 60.9662 23.5858 61.3381C23.9608 61.711 24.1483 62.2412 24.1483 62.9298C24.1483 63.6048 23.9587 64.1277 23.5816 64.4965C23.2066 64.8662 22.6618 65.0506 21.9483 65.0506ZM21.2941 61.2423V64.584H21.9441C22.166 64.584 22.3785 64.5621 22.5816 64.5173C22.7868 64.4704 22.967 64.386 23.1233 64.2631C23.2816 64.1412 23.4066 63.9735 23.4983 63.759C23.5899 63.5423 23.6358 63.2662 23.6358 62.9298C23.6358 62.511 23.5629 62.1787 23.4191 61.934C23.2743 61.6902 23.0754 61.5131 22.8233 61.4048C22.5733 61.2965 22.2816 61.2423 21.9483 61.2423H21.2941Z" fill="#F9F7F2"/>
<path d="M25.7708 65.0506H24.5999V60.7798H25.7749C26.4885 60.7798 27.0333 60.9662 27.4083 61.3381C27.7833 61.711 27.9708 62.2412 27.9708 62.9298C27.9708 63.6048 27.7812 64.1277 27.4041 64.4965C27.0291 64.8662 26.4843 65.0506 25.7708 65.0506ZM25.1166 61.2423V64.584H25.7666C25.9885 64.584 26.201 64.5621 26.4041 64.5173C26.6093 64.4704 26.7895 64.386 26.9458 64.2631C27.1041 64.1412 27.2291 63.9735 27.3208 63.759C27.4124 63.5423 27.4583 63.2662 27.4583 62.9298C27.4583 62.511 27.3854 62.1787 27.2416 61.934C27.0968 61.6902 26.8979 61.5131 26.6458 61.4048C26.3958 61.2965 26.1041 61.2423 25.7708 61.2423H25.1166Z" fill="#F9F7F2"/>
<path d="M28.9392 65.0506H28.4225V60.7798H28.9392V65.0506Z" fill="#F9F7F2"/>
<path d="M30.0696 65.0506H29.5529V60.7798H30.3029L32.2237 64.534V60.7798H32.7362V65.0506H31.9821L30.0696 61.3048V65.0506Z" fill="#F9F7F2"/>
<path d="M35.2016 65.1045C34.8516 65.1045 34.5485 65.0451 34.2933 64.9254C34.0401 64.8035 33.8318 64.6399 33.6683 64.4337C33.5037 64.2254 33.3818 63.991 33.3016 63.7295C33.2235 63.4691 33.1849 63.1983 33.1849 62.917C33.1849 62.6368 33.2245 62.366 33.3058 62.1045C33.386 61.841 33.5068 61.6045 33.6683 61.3962C33.8318 61.1879 34.0401 61.0243 34.2933 60.9045C34.5485 60.7826 34.8495 60.7212 35.1974 60.7212C35.6745 60.7212 36.0651 60.8358 36.3683 61.0629C36.6735 61.291 36.8828 61.5879 36.9974 61.9545H36.4224C36.3276 61.7212 36.1745 61.5337 35.9641 61.392C35.7558 61.2504 35.4953 61.1795 35.1849 61.1795C34.9235 61.1795 34.6995 61.2285 34.5141 61.3254C34.3276 61.4201 34.1745 61.5493 34.0558 61.7129C33.936 61.8743 33.8474 62.0576 33.7891 62.2629C33.7308 62.4691 33.7016 62.6816 33.7016 62.9004C33.7016 63.2087 33.7558 63.4983 33.8641 63.767C33.9745 64.0337 34.1412 64.2483 34.3641 64.4087C34.586 64.567 34.8641 64.6462 35.1974 64.6462C35.4745 64.6462 35.7162 64.592 35.9224 64.4837C36.1276 64.3733 36.286 64.2149 36.3974 64.0087C36.511 63.8035 36.5683 63.5587 36.5683 63.2754H35.5433V62.817H37.0724V65.0504H36.6016V64.442C36.4516 64.667 36.2474 64.8337 35.9891 64.942C35.7328 65.0504 35.4703 65.1045 35.2016 65.1045Z" fill="#F9F7F2"/>
<path d="M40.6908 65.1045C40.3543 65.1045 40.0626 65.0462 39.8158 64.9295C39.5679 64.8129 39.3626 64.6524 39.1991 64.4462C39.0376 64.241 38.9168 64.0066 38.8366 63.742C38.7585 63.4785 38.7199 63.2024 38.7199 62.9129C38.7199 62.6212 38.7585 62.3451 38.8366 62.0837C38.9168 61.8233 39.0376 61.5899 39.1991 61.3837C39.3626 61.1785 39.5679 61.017 39.8158 60.9004C40.0626 60.7816 40.3543 60.7212 40.6908 60.7212C41.0095 60.7212 41.2887 60.7743 41.5283 60.8795C41.7699 60.9826 41.9637 61.1285 42.1116 61.317C42.2616 61.5035 42.3574 61.717 42.3991 61.9587H41.8408C41.7876 61.7201 41.6585 61.5316 41.4533 61.392C41.247 61.2504 40.9908 61.1795 40.6824 61.1795C40.3626 61.1795 40.096 61.2545 39.8824 61.4045C39.6679 61.5545 39.5074 61.7608 39.3991 62.0212C39.2908 62.2826 39.2366 62.5795 39.2366 62.9129C39.2366 63.2441 39.2908 63.541 39.3991 63.8045C39.5074 64.0691 39.6679 64.2754 39.8824 64.4254C40.096 64.5733 40.3626 64.6462 40.6824 64.6462C40.9908 64.6462 41.247 64.5733 41.4533 64.4254C41.6585 64.2754 41.7876 64.0535 41.8408 63.7587H42.3991C42.3324 64.1733 42.1501 64.5004 41.8533 64.742C41.5554 64.9837 41.1679 65.1045 40.6908 65.1045Z" fill="#F9F7F2"/>
<path d="M44.6153 65.1045C44.2789 65.1045 43.9862 65.0462 43.7362 64.9295C43.4883 64.8129 43.2831 64.6524 43.1195 64.4462C42.9549 64.241 42.8331 64.0066 42.7528 63.742C42.6716 63.4785 42.632 63.2024 42.632 62.9129C42.632 62.6212 42.6716 62.3441 42.7528 62.0795C42.8331 61.816 42.9549 61.5826 43.1195 61.3795C43.2831 61.1774 43.4883 61.017 43.7362 60.9004C43.9862 60.7816 44.2789 60.7212 44.6153 60.7212C44.9539 60.7212 45.2487 60.7816 45.4987 60.9004C45.7487 61.017 45.9549 61.1774 46.1195 61.3795C46.2862 61.5826 46.4081 61.816 46.4862 62.0795C46.5664 62.3441 46.607 62.6212 46.607 62.9129C46.607 63.2024 46.5664 63.4785 46.4862 63.742C46.4081 64.0066 46.2862 64.241 46.1195 64.4462C45.9549 64.6524 45.7487 64.8129 45.4987 64.9295C45.2487 65.0462 44.9539 65.1045 44.6153 65.1045ZM44.6153 64.642C44.9372 64.642 45.2081 64.567 45.4278 64.417C45.6466 64.267 45.8122 64.0618 45.9237 63.8004C46.0372 63.5399 46.0945 63.2441 46.0945 62.9129C46.0945 62.5795 46.0372 62.2837 45.9237 62.0254C45.8122 61.7649 45.6466 61.5608 45.4278 61.4129C45.2081 61.2629 44.9372 61.1879 44.6153 61.1879C44.3008 61.1879 44.0341 61.2629 43.8153 61.4129C43.5987 61.5608 43.4331 61.7649 43.3195 62.0254C43.2049 62.2837 43.1487 62.5795 43.1487 62.9129C43.1487 63.2441 43.2049 63.5399 43.3195 63.8004C43.4331 64.0618 43.5987 64.267 43.8153 64.417C44.0341 64.567 44.3008 64.642 44.6153 64.642Z" fill="#F9F7F2"/>
<path d="M47.5759 65.0506H47.0592V60.7798H47.8092L49.73 64.534V60.7798H50.2425V65.0506H49.4884L47.5759 61.3048V65.0506Z" fill="#F9F7F2"/>
<path d="M52.4495 65.0506H51.937V61.2423H50.4912V60.7798H53.8995V61.2423H52.4495V65.0506Z" fill="#F9F7F2"/>
<path d="M56.907 65.0506H54.1445V60.7798H56.907V61.2423H54.6612V62.6756H56.6445V63.134H54.6612V64.584H56.907V65.0506Z" fill="#F9F7F2"/>
<path d="M57.8345 65.0506H57.3178V60.7798H58.0678L59.9886 64.534V60.7798H60.5011V65.0506H59.747L57.8345 61.3048V65.0506Z" fill="#F9F7F2"/>
<path d="M62.7082 65.0506H62.1957V61.2423H60.7498V60.7798H64.1582V61.2423H62.7082V65.0506Z" fill="#F9F7F2"/>
<path d="M67.5042 65.1045C67.1678 65.1045 66.8761 65.0462 66.6292 64.9295C66.3813 64.8129 66.1761 64.6524 66.0126 64.4462C65.8511 64.241 65.7303 64.0066 65.6501 63.742C65.5719 63.4785 65.5334 63.2024 65.5334 62.9129C65.5334 62.6212 65.5719 62.3451 65.6501 62.0837C65.7303 61.8233 65.8511 61.5899 66.0126 61.3837C66.1761 61.1785 66.3813 61.017 66.6292 60.9004C66.8761 60.7816 67.1678 60.7212 67.5042 60.7212C67.823 60.7212 68.1021 60.7743 68.3417 60.8795C68.5834 60.9826 68.7771 61.1285 68.9251 61.317C69.0751 61.5035 69.1709 61.717 69.2126 61.9587H68.6542C68.6011 61.7201 68.4719 61.5316 68.2667 61.392C68.0605 61.2504 67.8042 61.1795 67.4959 61.1795C67.1761 61.1795 66.9094 61.2545 66.6959 61.4045C66.4813 61.5545 66.3209 61.7608 66.2126 62.0212C66.1042 62.2826 66.0501 62.5795 66.0501 62.9129C66.0501 63.2441 66.1042 63.541 66.2126 63.8045C66.3209 64.0691 66.4813 64.2754 66.6959 64.4254C66.9094 64.5733 67.1761 64.6462 67.4959 64.6462C67.8042 64.6462 68.0605 64.5733 68.2667 64.4254C68.4719 64.2754 68.6011 64.0535 68.6542 63.7587H69.2126C69.1459 64.1733 68.9636 64.5004 68.6667 64.742C68.3688 64.9837 67.9813 65.1045 67.5042 65.1045Z" fill="#F9F7F2"/>
<path d="M71.7871 63.1506L72.6121 65.0506H72.0454L71.2871 63.2465H70.1246V65.0506H69.6079V60.7798H71.1996C71.61 60.7798 71.9382 60.8819 72.1829 61.084C72.4298 61.284 72.5538 61.5902 72.5538 62.0006C72.5538 62.2871 72.485 62.5287 72.3496 62.7256C72.2163 62.9235 72.0288 63.0652 71.7871 63.1506ZM70.1246 62.7881H71.1329C71.4267 62.7881 71.6517 62.7235 71.8079 62.5923C71.9663 62.459 72.0454 62.2673 72.0454 62.0173C72.0454 61.7704 71.9642 61.5798 71.8038 61.4465C71.6423 61.311 71.4184 61.2423 71.1329 61.2423H70.1246V62.7881Z" fill="#F9F7F2"/>
<path d="M75.79 65.0506H73.0275V60.7798H75.79V61.2423H73.5442V62.6756H75.5275V63.134H73.5442V64.584H75.79V65.0506Z" fill="#F9F7F2"/>
<path d="M76.3591 65.0506H75.8383L77.4091 60.7798H77.9924L79.5674 65.0506H79.0466L78.6716 64.0048H76.7341L76.3591 65.0506ZM77.7008 61.3048L76.9091 63.5423H78.4966L77.7008 61.3048Z" fill="#F9F7F2"/>
<path d="M81.4064 65.0506H80.8939V61.2423H79.4481V60.7798H82.8564V61.2423H81.4064V65.0506Z" fill="#F9F7F2"/>
<path d="M84.9223 65.1045C84.5858 65.1045 84.2931 65.0462 84.0431 64.9295C83.7952 64.8129 83.59 64.6524 83.4264 64.4462C83.2618 64.241 83.14 64.0066 83.0598 63.742C82.9785 63.4785 82.9389 63.2024 82.9389 62.9129C82.9389 62.6212 82.9785 62.3441 83.0598 62.0795C83.14 61.816 83.2618 61.5826 83.4264 61.3795C83.59 61.1774 83.7952 61.017 84.0431 60.9004C84.2931 60.7816 84.5858 60.7212 84.9223 60.7212C85.2608 60.7212 85.5556 60.7816 85.8056 60.9004C86.0556 61.017 86.2618 61.1774 86.4264 61.3795C86.5931 61.5826 86.715 61.816 86.7931 62.0795C86.8733 62.3441 86.9139 62.6212 86.9139 62.9129C86.9139 63.2024 86.8733 63.4785 86.7931 63.742C86.715 64.0066 86.5931 64.241 86.4264 64.4462C86.2618 64.6524 86.0556 64.8129 85.8056 64.9295C85.5556 65.0462 85.2608 65.1045 84.9223 65.1045ZM84.9223 64.642C85.2441 64.642 85.515 64.567 85.7348 64.417C85.9535 64.267 86.1191 64.0618 86.2306 63.8004C86.3441 63.5399 86.4014 63.2441 86.4014 62.9129C86.4014 62.5795 86.3441 62.2837 86.2306 62.0254C86.1191 61.7649 85.9535 61.5608 85.7348 61.4129C85.515 61.2629 85.2441 61.1879 84.9223 61.1879C84.6077 61.1879 84.341 61.2629 84.1223 61.4129C83.9056 61.5608 83.74 61.7649 83.6264 62.0254C83.5118 62.2837 83.4556 62.5795 83.4556 62.9129C83.4556 63.2441 83.5118 63.5399 83.6264 63.8004C83.74 64.0618 83.9056 64.267 84.1223 64.417C84.341 64.567 84.6077 64.642 84.9223 64.642Z" fill="#F9F7F2"/>
<path d="M89.5453 63.1506L90.3703 65.0506H89.8036L89.0453 63.2465H87.8828V65.0506H87.3661V60.7798H88.9578C89.3682 60.7798 89.6963 60.8819 89.9411 61.084C90.188 61.284 90.3119 61.5902 90.3119 62.0006C90.3119 62.2871 90.2432 62.5287 90.1078 62.7256C89.9744 62.9235 89.7869 63.0652 89.5453 63.1506ZM87.8828 62.7881H88.8911C89.1848 62.7881 89.4098 62.7235 89.5661 62.5923C89.7244 62.459 89.8036 62.2673 89.8036 62.0173C89.8036 61.7704 89.7223 61.5798 89.5619 61.4465C89.4005 61.311 89.1765 61.2423 88.8911 61.2423H87.8828V62.7881Z" fill="#F9F7F2"/>
</svg>
