<svg width="30" height="30" viewBox="0 0 30 30" fill="none" xmlns="http://www.w3.org/2000/svg">
<path d="M27.1875 8.4375V21.5625C27.1875 22.3084 26.8912 23.0238 26.3637 23.5512C25.8363 24.0787 25.1209 24.375 24.375 24.375H5.625C4.87908 24.375 4.16371 24.0787 3.63626 23.5512C3.10882 23.0238 2.8125 22.3084 2.8125 21.5625V8.4375M27.1875 8.4375C27.1875 7.69158 26.8912 6.97621 26.3637 6.44876C25.8363 5.92132 25.1209 5.625 24.375 5.625H5.625C4.87908 5.625 4.16371 5.92132 3.63626 6.44876C3.10882 6.97621 2.8125 7.69158 2.8125 8.4375M27.1875 8.4375V8.74125C27.1876 9.22143 27.0647 9.69363 26.8305 10.1129C26.5964 10.5321 26.2588 10.8844 25.85 11.1363L16.475 16.905C16.0315 17.1782 15.5209 17.3228 15 17.3228C14.4791 17.3228 13.9685 17.1782 13.525 16.905L4.15 11.1375C3.74115 10.8857 3.40359 10.5334 3.16946 10.1141C2.93534 9.69488 2.81245 9.22268 2.8125 8.7425V8.4375" stroke="#1A2634" stroke-width="1.5" stroke-linecap="round" stroke-linejoin="round"/>
</svg>
