<svg width="45" height="45" viewBox="0 0 45 45" fill="none" xmlns="http://www.w3.org/2000/svg">
<path d="M34.3641 12.0684C34.118 11.9412 33.8785 11.8018 33.6463 11.6507C32.9714 11.2045 32.3525 10.6787 31.8031 10.0846C30.4284 8.51173 29.915 6.91601 29.7259 5.79884H29.7334C29.5755 4.87147 29.6408 4.27148 29.6507 4.27148H23.3894V28.4825C23.3894 28.8076 23.3894 29.1289 23.3757 29.4463C23.3757 29.4858 23.3719 29.5223 23.3697 29.5648C23.3697 29.5823 23.3697 29.6005 23.3659 29.6187C23.3659 29.6233 23.3659 29.6278 23.3659 29.6324C23.2999 30.5011 23.0214 31.3402 22.555 32.0761C22.0886 32.8119 21.4484 33.4218 20.691 33.8521C19.9015 34.3013 19.0086 34.5368 18.1003 34.5357C15.1831 34.5357 12.8188 32.1569 12.8188 29.2192C12.8188 26.2815 15.1831 23.9028 18.1003 23.9028C18.6526 23.9023 19.2014 23.9892 19.7264 24.1602L19.734 17.7851C18.1401 17.5792 16.5208 17.7059 14.9784 18.1571C13.4359 18.6084 12.0036 19.3744 10.772 20.4069C9.69284 21.3445 8.78557 22.4633 8.09102 23.7129C7.8267 24.1686 6.82948 25.9998 6.70873 28.9716C6.63279 30.6585 7.13937 32.4061 7.38087 33.1283V33.1435C7.53279 33.5689 8.1214 35.0202 9.08065 36.2438C9.85413 37.2252 10.768 38.0874 11.7928 38.8025V38.7873L11.808 38.8025C14.8391 40.8622 18.1999 40.727 18.1999 40.727C18.7816 40.7035 20.7304 40.727 22.9436 39.6782C25.3983 38.5154 26.7957 36.783 26.7957 36.783C27.6885 35.7479 28.3984 34.5682 28.895 33.2946C29.4616 31.8053 29.6507 30.019 29.6507 29.3051V16.4606C29.7266 16.5061 30.7383 17.1752 30.7383 17.1752C30.7383 17.1752 32.1957 18.1094 34.4697 18.7178C36.101 19.1507 38.299 19.2418 38.299 19.2418V13.0261C37.5288 13.1097 35.9651 12.8667 34.3641 12.0684Z" fill="#F9F7F2"/>
</svg>
